<svg width="137" height="32" viewBox="0 0 137 32" fill="none" xmlns="http://www.w3.org/2000/svg">
<g clip-path="url(#clip0_374_931)">
<path d="M35.2502 22.452C35.0787 22.452 34.9581 22.2829 35.0137 22.1203L39.0419 10.3448C39.0766 10.2435 39.1716 10.1754 39.2784 10.1754H42.9459C43.0528 10.1754 43.1478 10.2435 43.1824 10.3448L47.2106 22.1203C47.2663 22.2829 47.1457 22.452 46.9742 22.452H44.4441C44.3356 22.452 44.2394 22.3819 44.2061 22.2782L43.5302 20.1706C43.497 20.0669 43.4008 19.9967 43.2922 19.9967H38.9321C38.8235 19.9967 38.7274 20.0669 38.6941 20.1706L38.0182 22.2782C37.985 22.3819 37.8888 22.452 37.7802 22.452H35.2502ZM39.6417 17.2144C39.5901 17.3763 39.7104 17.5414 39.8798 17.5414H42.3446C42.5139 17.5414 42.6343 17.3763 42.5827 17.2144L41.3405 13.324C41.3087 13.2245 41.2164 13.1569 41.1122 13.1569C41.0079 13.1569 40.9156 13.2245 40.8839 13.324L39.6417 17.2144Z" fill="white"/>
<path d="M48.1899 22.452C48.0519 22.452 47.94 22.3398 47.94 22.2015V19.997C47.94 19.9401 47.9593 19.8847 47.9947 19.8404L53.2146 13.3009C53.3455 13.1368 53.229 12.8938 53.0194 12.8938H48.2774C48.1394 12.8938 48.0274 12.7816 48.0274 12.6433V10.4259C48.0274 10.2876 48.1394 10.1754 48.2774 10.1754H57.0517C57.1897 10.1754 57.3017 10.2876 57.3017 10.4259V12.6305C57.3017 12.6873 57.2823 12.7427 57.2469 12.7871L52.027 19.3265C51.8961 19.4906 52.0126 19.7336 52.2222 19.7336H57.1392C57.2772 19.7336 57.3892 19.8459 57.3892 19.9842V22.2015C57.3892 22.3398 57.2772 22.452 57.1392 22.452H48.1899Z" fill="white"/>
<path d="M68.2028 22.452C68.0783 22.452 67.9729 22.3603 67.9554 22.2368L67.8191 21.2812C67.8146 21.2487 67.7866 21.2244 67.7539 21.2244C67.7346 21.2244 67.7164 21.2329 67.7036 21.2472C67.4859 21.4955 67.2242 21.7217 66.9187 21.9259C66.1953 22.3937 65.3553 22.6274 64.3989 22.6274C62.719 22.6274 61.3074 22.0311 60.1643 20.8385C59.0209 19.6459 58.4493 18.1377 58.4493 16.3137C58.4493 14.4897 59.0209 12.9815 60.1643 11.7889C61.3074 10.5963 62.719 10 64.3989 10C66.2537 10 67.7526 10.7308 68.896 12.1923C69.3092 12.7582 69.64 13.3808 69.8877 14.0601C69.9457 14.2194 69.8254 14.3845 69.6562 14.3845H67.2607C67.1687 14.3845 67.0844 14.3334 67.0382 14.2535C66.8817 13.9832 66.7075 13.7522 66.5162 13.5602C65.9563 12.999 65.2503 12.7184 64.3989 12.7184C63.5005 12.7184 62.748 13.0516 62.1416 13.7181C61.5466 14.3845 61.2492 15.2497 61.2492 16.3137C61.2492 17.3893 61.5466 18.2604 62.1416 18.9269C62.748 19.5816 63.5005 19.909 64.3989 19.909C65.4253 19.909 66.2128 19.5758 66.7612 18.9093C66.9379 18.6984 67.0784 18.4629 67.1824 18.2031C67.2437 18.0497 67.1237 17.8921 66.9587 17.8921H64.8239C64.6856 17.8921 64.5739 17.7799 64.5739 17.6416V16.2135C64.5739 16.0752 64.6856 15.9629 64.8239 15.9629H69.8359C69.9739 15.9629 70.0859 16.0752 70.0859 16.2135V22.2015C70.0859 22.3398 69.9739 22.452 69.8359 22.452H68.2028Z" fill="white"/>
<path d="M72.519 22.452C72.381 22.452 72.269 22.3398 72.269 22.2015V10.4259C72.269 10.2876 72.381 10.1754 72.519 10.1754H80.4183C80.5565 10.1754 80.6683 10.2876 80.6683 10.4259V12.4679C80.6683 12.6062 80.5565 12.7184 80.4183 12.7184H75.3187C75.1807 12.7184 75.0687 12.8307 75.0687 12.969V14.8355C75.0687 14.9738 75.1807 15.0861 75.3187 15.0861H80.0683C80.2066 15.0861 80.3183 15.1983 80.3183 15.3366V17.2908C80.3183 17.4291 80.2066 17.5414 80.0683 17.5414H75.3187C75.1807 17.5414 75.0687 17.6536 75.0687 17.7919V19.6585C75.0687 19.7968 75.1807 19.909 75.3187 19.909H80.4183C80.5565 19.909 80.6683 20.0213 80.6683 20.1596V22.2015C80.6683 22.3398 80.5565 22.452 80.4183 22.452H72.519Z" fill="white"/>
<path d="M83.0113 22.452C82.8733 22.452 82.7614 22.3398 82.7614 22.2015V10.4259C82.7614 10.2876 82.8733 10.1754 83.0113 10.1754H88.5359C89.7258 10.1754 90.6939 10.5612 91.4406 11.3329C92.1873 12.1046 92.5605 13.1218 92.5605 14.3845C92.5605 15.9397 91.9888 17.0679 90.8457 17.7694C90.4624 17.9914 90.0572 18.151 89.6303 18.2482C89.4315 18.2935 89.3408 18.5416 89.4785 18.6924L92.5273 22.0324C92.6743 22.1932 92.5603 22.452 92.343 22.452H89.523C89.4515 22.452 89.3835 22.4215 89.3363 22.3679L85.9831 18.5872C85.9373 18.5355 85.8716 18.506 85.8026 18.506C85.6694 18.506 85.5611 18.6145 85.5611 18.748V22.2015C85.5611 22.3398 85.4491 22.452 85.3111 22.452H83.0113ZM85.5611 15.7124C85.5611 15.8507 85.6731 15.963 85.8111 15.963H88.3609C88.7691 15.963 89.1016 15.8227 89.3583 15.542C89.6265 15.2497 89.7608 14.8638 89.7608 14.3845C89.7608 13.9052 89.6265 13.5252 89.3583 13.2446C89.1016 12.9522 88.7691 12.8061 88.3609 12.8061H85.8111C85.6731 12.8061 85.5611 12.9183 85.5611 13.0566V15.7124Z" fill="white"/>
<path d="M94.9048 22.452C94.7668 22.452 94.6548 22.3398 94.6548 22.2015V10.4259C94.6548 10.2876 94.7668 10.1754 94.9048 10.1754H97.9158C98.0088 10.1754 98.094 10.2273 98.1373 10.3097L101.855 17.4244C101.893 17.4963 101.967 17.5414 102.049 17.5414C102.169 17.5414 102.267 17.4437 102.267 17.3229V10.4259C102.267 10.2876 102.379 10.1754 102.517 10.1754H104.816C104.954 10.1754 105.066 10.2876 105.066 10.4259V22.2015C105.066 22.3398 104.954 22.452 104.816 22.452H101.805C101.712 22.452 101.627 22.4004 101.584 22.3178L97.8658 15.2033C97.828 15.1311 97.7538 15.0861 97.6726 15.0861C97.5523 15.0861 97.4546 15.184 97.4546 15.3045V22.2015C97.4546 22.3398 97.3426 22.452 97.2046 22.452H94.9048Z" fill="white"/>
<path d="M107.772 22.452C107.634 22.452 107.522 22.3398 107.522 22.2015V10.4259C107.522 10.2876 107.634 10.1754 107.772 10.1754H115.672C115.81 10.1754 115.922 10.2876 115.922 10.4259V12.4679C115.922 12.6062 115.81 12.7184 115.672 12.7184H110.572C110.434 12.7184 110.322 12.8307 110.322 12.969V14.8355C110.322 14.9738 110.434 15.0861 110.572 15.0861H115.322C115.46 15.0861 115.572 15.1983 115.572 15.3366V17.2908C115.572 17.4291 115.46 17.5414 115.322 17.5414H110.572C110.434 17.5414 110.322 17.6536 110.322 17.7919V19.6585C110.322 19.7968 110.434 19.909 110.572 19.909H115.672C115.81 19.909 115.922 20.0213 115.922 20.1596V22.2015C115.922 22.3398 115.81 22.452 115.672 22.452H107.772Z" fill="white"/>
<path d="M118.015 22.452C117.877 22.452 117.765 22.3398 117.765 22.2015V10.4259C117.765 10.2876 117.877 10.1754 118.015 10.1754H125.826C125.965 10.1754 126.076 10.2876 126.076 10.4259V12.4679C126.076 12.6062 125.965 12.7184 125.826 12.7184H120.814C120.676 12.7184 120.564 12.8307 120.564 12.969V14.9232C120.564 15.0615 120.676 15.1737 120.814 15.1737H125.389C125.527 15.1737 125.639 15.286 125.639 15.4243V17.3785C125.639 17.5168 125.527 17.6291 125.389 17.6291H120.814C120.676 17.6291 120.564 17.7413 120.564 17.8796V22.2015C120.564 22.3398 120.453 22.452 120.314 22.452H118.015Z" fill="white"/>
<path d="M131.038 22.452C130.9 22.452 130.788 22.3398 130.788 22.2015V13.1443C130.788 13.006 130.676 12.8938 130.538 12.8938H127.626C127.488 12.8938 127.376 12.7816 127.376 12.6433V10.4259C127.376 10.2876 127.488 10.1754 127.626 10.1754H136.75C136.888 10.1754 137 10.2876 137 10.4259V12.6433C137 12.7816 136.888 12.8938 136.75 12.8938H133.838C133.7 12.8938 133.588 13.006 133.588 13.1443V22.2015C133.588 22.3398 133.476 22.452 133.338 22.452H131.038Z" fill="white"/>
<path fill-rule="evenodd" clip-rule="evenodd" d="M8.13252 19.1199L6.04422 20.9919L6.04513 21.0029C4.94344 22.0643 4.04716 23.6201 3.63964 25.2614C3.47056 25.9425 3.40689 26.4456 3.40626 27.1052C3.40608 27.3003 3.40209 27.4827 3.39829 27.6567C3.3796 28.5101 3.3654 29.1588 3.82856 30.1004C4.35552 31.1717 4.75049 31.3537 5.40896 31.657C5.50787 31.7026 5.61272 31.7509 5.72487 31.8054C5.98001 31.9293 6.16237 31.9903 6.14134 31.9447C6.13585 31.9328 6.02866 31.717 5.9032 31.4653C5.1904 30.0352 5.38223 29.4597 5.70951 28.4778C5.79216 28.2299 5.88344 27.9559 5.97097 27.6358C6.21427 26.746 6.62225 25.9575 7.31737 25.0336C7.40209 24.921 7.4751 24.8145 7.53661 24.7135C8.11434 24.0748 8.95637 23.3585 10.1376 22.7985C10.1914 22.773 10.2463 22.7454 10.3018 22.7158L11.452 19.938L8.13252 19.1199ZM23.7781 20.5407C23.2882 18.0748 22.3915 15.6524 20.9734 12.9169C20.4911 11.9866 19.772 10.69 19.6568 10.543C19.5985 10.4686 19.3547 10.3076 19.3359 10.3311C19.3321 10.3357 19.3163 10.4532 19.3006 10.5924C19.1214 12.1827 18.6513 13.6254 17.8495 15.0459C17.6375 15.4215 17.1295 16.1831 16.8595 16.5302C16.3676 17.1626 15.7638 17.8258 15.0963 18.4698L10.3006 17.1763L11.618 15.9954C11.7701 15.8469 11.9345 15.6849 12.0952 15.5242C13.0947 14.5245 13.559 14.0242 14.1821 13.2752C15.8286 11.296 16.8741 9.3368 17.3617 7.31628C17.662 6.07182 17.7631 4.81668 17.6715 3.46811C17.6631 3.34557 17.6647 3.24529 17.675 3.24529C17.7484 3.24529 18.538 3.9925 18.9351 4.43768C19.372 4.92751 20.85 6.7716 21.5318 7.67761C23.3664 10.1156 24.6719 12.3712 25.6309 14.7597C26.4838 16.8838 26.9051 18.7212 26.988 20.6785C26.9949 20.841 26.9989 21.0032 27 21.1651C26.4538 21.0584 25.7739 20.9303 24.9338 20.766C24.57 20.6949 24.1769 20.6181 23.7781 20.5407ZM24.1355 24.872C24.134 24.8997 24.1323 24.9256 24.1305 24.9493C24.0556 25.9389 23.8848 26.8119 23.5764 27.7797C23.5241 28.0523 23.4826 28.2546 23.4477 28.4244L23.4476 28.4247L23.4459 28.4332V28.4334C23.3632 28.8358 23.3178 29.057 23.2533 29.6111C23.2537 29.7221 23.2522 29.857 23.2508 29.9869V29.9877L23.2506 30.0048C23.248 30.2325 23.2457 30.4406 23.2533 30.4718L23.2755 30.5625L23.3985 30.4794C23.7195 30.2626 24.0774 29.8561 24.4833 29.2469C25.2622 28.078 25.8629 26.8646 26.2818 25.6194C25.8343 25.5239 25.348 25.3333 24.8831 25.1511C24.6237 25.0495 24.371 24.9504 24.1355 24.872Z" fill="white"/>
<path d="M12.1931 0.39574C8.99272 3.3404 6.75376 5.7929 4.87665 8.4102C3.15763 10.807 1.76405 13.4183 0.814501 16.0221C0.732971 16.2456 0.671901 16.434 0.678728 16.4409C0.709808 16.472 1.12947 16.1691 1.38448 15.9316C1.79996 15.5445 2.38092 15.0284 2.84368 14.6355C3.22549 14.3113 3.57629 14.0225 5.43338 12.5039C7.18578 11.0709 8.16466 10.1815 9.01458 9.24985C11.154 6.90509 12.3061 4.54935 12.6044 1.90919C12.6515 1.49253 12.6679 0.0400443 12.6257 0.0271569C12.6125 0.0231099 12.4178 0.188986 12.1931 0.39574Z" fill="white"/>
<path d="M14.2862 0.0280249C14.2798 0.0590754 14.257 0.295845 14.2358 0.554195C14.2146 0.812548 14.1816 1.18111 14.1625 1.37321C13.8305 4.70445 12.3562 7.55009 9.45214 10.465C8.64706 11.2732 7.88562 11.965 6.52993 13.0975C6.91043 13.1157 7.40246 13.4824 7.91769 13.8665L7.94414 13.8862C7.97421 13.9086 8.00436 13.931 8.03456 13.9534C8.87131 14.5747 8.50601 14.9737 8.24727 15.2564L8.24701 15.2567C8.19236 15.3164 8.14244 15.371 8.10967 15.4213L7.54636 16.287L8.05724 16.469C9.5805 15.0919 10.0601 14.6308 11.0284 13.66C12.319 12.3658 12.7709 11.8666 13.3292 11.1188C13.8273 10.4514 14.1682 9.89483 14.5252 9.16592C15.1637 7.86241 15.5051 6.61691 15.6195 5.17378C15.6573 4.6965 15.6367 3.48365 15.5841 3.08691C15.431 1.9333 15.0492 0.966046 14.4162 0.128017C14.3099 -0.0128538 14.297 -0.0228024 14.2862 0.0280249Z" fill="white"/>
<path d="M4.89861 14.4416C5.25242 14.1528 5.57611 13.8875 5.87423 13.6415C5.06 14.8511 3.76094 17.2329 4.00346 20.3507C3.00389 21.481 2.29723 22.5307 1.72555 23.6914C1.38188 24.3893 1.15327 24.9766 0.922941 25.7534C0.889172 25.8673 0.840788 25.9624 0.812983 25.9978C0.752754 26.0746 0.622728 26.1728 0.595907 26.1445C0.563671 26.1106 0.408438 25.5927 0.297444 25.1488C0.0673144 24.2286 -0.015364 23.4999 0.00230128 22.5472C0.0149945 21.8634 0.0459239 21.5609 0.167012 20.9366C0.47403 19.3535 1.20345 17.9331 2.36306 16.6602C2.83618 16.141 3.10997 15.9014 4.89861 14.4416Z" fill="white"/>
<path fill-rule="evenodd" clip-rule="evenodd" d="M6.78959 13.9067C6.78599 13.9103 6.77938 13.9039 6.77494 13.8924C6.76751 13.8731 6.76511 13.8732 6.74175 13.8938C6.67197 13.9553 6.2063 14.5668 6.05031 14.802C5.99758 14.8815 5.95205 14.9441 5.9491 14.9411C5.94613 14.9382 5.94366 14.9427 5.94359 14.9512C5.9435 14.9597 5.9109 15.0266 5.87113 15.0998C5.82009 15.1938 5.79549 15.2283 5.78748 15.2172C5.7796 15.2063 5.77839 15.2085 5.78352 15.2242C5.78808 15.2382 5.76978 15.2882 5.73602 15.354C5.52317 15.7693 5.29042 16.2773 5.2637 16.385C5.25895 16.4042 5.24963 16.4155 5.24231 16.411C5.23491 16.4064 5.23298 16.4089 5.2378 16.4166C5.24914 16.4349 5.23346 16.4949 5.21957 16.4864C5.21356 16.4827 5.21194 16.4882 5.21597 16.4987C5.21999 16.5092 5.21671 16.5359 5.20866 16.558C5.20064 16.5802 5.18078 16.6483 5.16455 16.7095C5.14832 16.7705 5.13004 16.8222 5.12393 16.8243C5.11781 16.8263 5.1156 16.8425 5.119 16.8603C5.12366 16.8846 5.1212 16.8901 5.10908 16.8826C5.09874 16.8762 5.09601 16.8776 5.10143 16.8863C5.11234 16.9039 5.08514 17.0125 5.06982 17.0125C5.06341 17.0125 5.06157 17.018 5.06574 17.0247C5.075 17.0396 5.02268 17.2395 5.008 17.2453C5.00222 17.2476 5.00049 17.2543 5.00415 17.2602C5.00779 17.2661 4.9961 17.3226 4.97817 17.3858C4.89106 17.6929 4.88823 17.7106 4.84356 18.2241C4.79747 18.7539 4.779 18.5639 4.77767 18.5639C4.77722 18.564 4.7787 18.5855 4.78171 18.6629C4.78727 18.8057 4.79213 18.9489 4.79249 18.9812C4.79287 19.0135 4.79662 19.0399 4.80086 19.0399C4.80509 19.0399 4.81247 19.083 4.81727 19.1357C4.82928 19.2676 4.83136 19.2829 4.87435 19.5548C4.8952 19.6869 4.90923 19.8072 4.90552 19.8223C4.90178 19.8373 4.90233 19.8415 4.90672 19.8316C4.9144 19.8142 4.97575 20.0499 4.97489 20.0935C4.97464 20.1052 4.97828 20.114 4.98296 20.113C4.98727 20.112 4.99405 20.1134 5.00193 20.1164L5.86048 19.9667C5.86766 19.9645 5.87651 19.963 5.88602 19.9623L5.93764 19.9532C5.93888 19.9523 5.93955 19.9512 5.93955 19.9502C5.93958 19.9443 5.95602 19.942 5.97611 19.9449C5.97804 19.9451 5.9799 19.9454 5.9817 19.9456L6.00728 19.9411C6.00936 19.9281 6.27308 19.8783 6.2893 19.8884C6.29185 19.8899 6.2938 19.8908 6.29508 19.891L6.29643 19.8908C6.29764 19.8898 6.29651 19.8865 6.29298 19.8808C6.28644 19.8703 6.28892 19.8668 6.30011 19.8706C6.31814 19.8765 6.34976 19.8513 6.36891 19.8157C6.37672 19.8011 6.36966 19.7404 6.34676 19.6267C6.3282 19.5346 6.31514 19.4483 6.31769 19.435C6.32024 19.4216 6.31791 19.4108 6.31243 19.4108C6.30214 19.4108 6.29966 19.3954 6.26947 19.145C6.25482 19.0241 6.24686 18.9542 6.24401 18.9155C6.24626 18.8989 6.24882 18.8844 6.25152 18.874C6.2573 18.8758 6.26429 18.8729 6.26812 18.8668C6.27247 18.8597 6.26887 18.8554 6.26001 18.8573C6.257 18.858 6.25415 18.8641 6.25152 18.874C6.25069 18.8737 6.24987 18.8733 6.24912 18.8729C6.24333 18.8693 6.24108 18.877 6.24401 18.9155C6.23777 18.9601 6.23319 19.0198 6.23049 19.0553C6.22696 19.102 6.22658 19.107 6.22989 18.9808C6.23364 18.838 6.23732 18.6893 6.23808 18.6501C6.23883 18.6111 6.24453 18.5759 6.25069 18.5721C6.25685 18.5683 6.25858 18.5519 6.25445 18.5356C6.24491 18.4976 6.30725 18.0588 6.33001 17.9568C6.33579 17.9308 6.33602 17.9308 6.47188 17.968C6.54677 17.9884 6.60513 18.0098 6.6016 18.0155C6.59807 18.0212 6.6031 18.0228 6.61286 18.0191C6.62743 18.0135 7.12577 18.1531 8.07754 18.4296C8.15933 18.4533 8.2611 18.4817 8.30368 18.4926C8.34627 18.5035 8.3812 18.5173 8.3812 18.5234C8.3812 18.5295 8.386 18.5315 8.39186 18.5278C8.40065 18.5224 8.82816 18.6402 8.8893 18.6649C8.89951 18.6689 8.91626 18.6738 8.92648 18.6756C8.93669 18.6774 9.01916 18.6998 9.10974 18.7255C9.21992 18.7566 9.26912 18.7757 9.25845 18.7831C9.24786 18.7905 9.25124 18.7917 9.26867 18.7869C9.29082 18.7807 9.92353 18.9532 9.96116 18.9757C9.96784 18.9797 9.98181 18.9837 9.99218 18.9846C10.0395 18.9887 10.424 19.1074 10.4186 19.1162C10.4153 19.1216 10.4208 19.1229 10.431 19.1189C10.4411 19.115 10.507 19.1292 10.5772 19.1503C10.7279 19.1957 11.5882 19.4462 11.6175 19.4533C11.648 19.4606 11.9099 19.5361 12.2883 19.6468C12.3343 19.6603 12.372 19.6771 12.372 19.6842C12.372 19.6913 12.3023 19.8643 12.217 20.0687C12.1318 20.2731 12.0621 20.4478 12.0621 20.457C12.0621 20.4662 12.0562 20.4737 12.049 20.4737C12.0418 20.4737 12.0393 20.4793 12.0435 20.4861C12.0477 20.4928 12.0449 20.4984 12.0374 20.4984C12.0297 20.4984 12.0265 20.5034 12.0304 20.5095C12.0365 20.5195 11.9544 20.7309 11.9386 20.7456C11.935 20.7491 11.9303 20.7601 11.9282 20.7704C11.9175 20.8226 11.8455 20.9783 11.8349 20.9718C11.8282 20.9676 11.8268 20.9707 11.8318 20.9788C11.8392 20.9907 11.7546 21.211 11.6532 21.444C11.6413 21.4713 11.6161 21.5325 11.5969 21.5801C11.5414 21.7185 11.5131 21.7767 11.4926 21.7942C11.4793 21.8055 11.4789 21.8078 11.491 21.8015C11.5045 21.7945 11.5064 21.7978 11.4991 21.816C11.4938 21.829 11.4839 21.8549 11.4771 21.8737C11.4704 21.8923 11.4595 21.9076 11.4529 21.9076C11.4463 21.9076 11.4441 21.9127 11.4479 21.9189C11.4586 21.9361 11.4415 21.9704 11.4268 21.9613C11.4194 21.9568 11.4175 21.9592 11.4222 21.9668C11.4269 21.9744 11.4068 22.0392 11.3777 22.1109C11.3377 22.2095 11.3202 22.2396 11.3061 22.2345C11.2923 22.2293 11.2911 22.2311 11.3015 22.2416C11.3119 22.2521 11.3075 22.2759 11.2841 22.3347C11.2668 22.378 11.2487 22.4111 11.2436 22.408C11.2387 22.4049 11.2269 22.412 11.2176 22.4239C11.2024 22.4434 11.2028 22.4437 11.2224 22.4284C11.2479 22.4085 11.2506 22.4239 11.2297 22.4695C11.2218 22.4868 11.2065 22.5011 11.1957 22.5012C11.1811 22.5013 11.18 22.5039 11.1916 22.5113C11.2035 22.5188 11.195 22.5505 11.156 22.644C11.1278 22.7115 11.0998 22.7686 11.0938 22.7709C11.0878 22.7732 11.0856 22.7795 11.0889 22.7848C11.0923 22.7902 11.068 22.8579 11.035 22.9352C11.002 23.0125 10.9254 23.1967 10.8648 23.3445C10.7798 23.552 10.7503 23.6117 10.736 23.6065C10.7219 23.6013 10.7209 23.6032 10.7317 23.6141C10.7425 23.6249 10.7278 23.6726 10.6715 23.8095C10.6304 23.9091 10.5933 23.9933 10.589 23.9967C10.5846 24.0001 10.5794 24.0112 10.5773 24.0215C10.5671 24.0731 10.533 24.1436 10.5218 24.1367C10.5147 24.1324 10.5128 24.1349 10.5176 24.1426C10.5223 24.1501 10.5167 24.1774 10.5051 24.2033C10.4936 24.229 10.4835 24.2529 10.4826 24.2563C10.4738 24.2919 10.4329 24.3799 10.4253 24.3799C10.4198 24.3799 10.4158 24.3897 10.4164 24.4015C10.4179 24.4295 10.1475 25.0744 10.1383 25.0652C10.1344 25.0613 10.132 25.0655 10.133 25.0745C10.1363 25.1033 10.0249 25.3675 10.0128 25.3599C10.0062 25.3559 10.0047 25.3588 10.0093 25.3662C10.0203 25.3841 9.9378 25.582 9.92443 25.5698C9.91872 25.5647 9.91775 25.5669 9.92225 25.5748C9.92676 25.5826 9.91842 25.6161 9.9037 25.649C9.88898 25.6819 9.87569 25.7144 9.87419 25.7212C9.86277 25.7717 9.74703 26.0226 9.73869 26.015C9.73283 26.0098 9.73193 26.0121 9.73659 26.0202C9.74568 26.036 9.60004 26.3983 9.58179 26.4052C9.57578 26.4075 9.57383 26.4142 9.57751 26.4201C9.58119 26.4261 9.57864 26.4409 9.5718 26.4531C9.56497 26.4652 9.51953 26.5725 9.47086 26.6915C9.42219 26.8105 9.37247 26.9301 9.36045 26.9573C9.34843 26.9845 9.33116 27.0276 9.32214 27.0531C9.31313 27.0786 9.30126 27.0995 9.29586 27.0995C9.29037 27.0995 9.28729 27.1036 9.28887 27.1087C9.29443 27.1258 9.24508 27.2415 9.22796 27.2516C9.21865 27.2572 9.21444 27.2672 9.21865 27.2739C9.22668 27.2869 9.16404 27.4465 9.14587 27.4593C9.13993 27.4635 9.13663 27.469 9.13851 27.4717C9.14406 27.4795 9.09585 27.6063 9.08721 27.6063C9.08293 27.6063 9.07932 27.6145 9.07932 27.6244C9.07932 27.6426 9.03816 27.7431 9.02599 27.7546C9.02239 27.758 9.01781 27.7704 9.01586 27.7823C9.00872 27.8248 8.87105 28.1356 8.86181 28.13C8.85663 28.1268 8.8552 28.1315 8.85866 28.1404C8.86399 28.1543 8.78843 28.3501 8.70942 28.5272C8.69732 28.5544 8.68606 28.5825 8.68448 28.5895C8.6829 28.5967 8.67051 28.6272 8.65699 28.6575C8.64347 28.6878 8.62252 28.739 8.61042 28.7713C8.59841 28.8036 8.58339 28.83 8.57708 28.83C8.57077 28.83 8.56844 28.8346 8.57197 28.8403C8.58158 28.8559 8.48605 29.0787 8.47425 29.0681C8.46862 29.0629 8.46779 29.0654 8.47253 29.0737C8.47726 29.0819 8.47583 29.0986 8.4693 29.1107C8.46284 29.1229 8.41845 29.2303 8.37068 29.3492C8.32291 29.4682 8.27139 29.5934 8.25622 29.6274C8.24105 29.6613 8.2273 29.6948 8.22572 29.7015C8.22415 29.7083 8.18877 29.796 8.14709 29.8964C8.1054 29.9968 8.0713 30.0844 8.0713 30.0911C8.0713 30.0978 8.06484 30.1033 8.05688 30.1033C8.04892 30.1033 8.04592 30.1068 8.0502 30.1111C8.05455 30.1154 8.05155 30.1307 8.04359 30.1451C8.03563 30.1595 8.02812 30.1768 8.02684 30.1836C8.02286 30.205 7.95571 30.3688 7.94828 30.3753C7.94437 30.3786 7.93964 30.3898 7.93769 30.4C7.92935 30.4439 7.90637 30.4855 7.89442 30.4782C7.88699 30.4736 7.88534 30.4763 7.89052 30.4847C7.90021 30.5004 7.74909 30.8959 7.73647 30.8881C7.72363 30.8801 7.7388 30.9611 7.75375 30.98C7.76501 30.9943 8.02406 31.1231 8.12711 31.1655C8.1407 31.1712 8.17698 31.186 8.20762 31.1986C8.23834 31.2111 8.26621 31.2242 8.26966 31.2279C8.27304 31.2315 8.28138 31.2353 8.28821 31.2365C8.32314 31.2426 8.57843 31.3487 8.57242 31.3547C8.56859 31.3585 8.57835 31.3619 8.59413 31.3622C8.60997 31.3625 8.64107 31.3665 8.66322 31.371C8.70296 31.3792 8.70423 31.378 8.73826 31.3034C8.75726 31.2616 8.77701 31.2315 8.78212 31.2367C8.7873 31.2418 8.78783 31.2364 8.78332 31.2247C8.77882 31.213 8.78039 31.2035 8.78678 31.2035C8.79316 31.2035 8.79842 31.1957 8.79842 31.1863C8.79842 31.1768 8.80698 31.1504 8.81742 31.1276C8.82786 31.1047 8.90237 30.9292 8.98296 30.7375C9.06347 30.5458 9.13392 30.3917 9.13933 30.3951C9.14482 30.3985 9.14624 30.3932 9.14249 30.3835C9.13873 30.3738 9.15 30.3363 9.16742 30.3003C9.18485 30.2642 9.19919 30.2301 9.19919 30.2246C9.19919 30.219 9.21309 30.1856 9.23014 30.1503C9.24719 30.1151 9.26116 30.0815 9.26116 30.0754C9.26116 30.0695 9.28812 30.008 9.32117 29.9387C9.35414 29.8695 9.39117 29.7864 9.40341 29.7541C9.41565 29.7218 9.43075 29.6954 9.43706 29.6954C9.44337 29.6954 9.44555 29.6906 9.44194 29.6848C9.43383 29.6716 9.5187 29.4682 9.5347 29.4625C9.54108 29.4603 9.54319 29.4533 9.53936 29.4471C9.53545 29.4408 9.55175 29.3898 9.57548 29.3338C9.59922 29.2777 9.63669 29.1873 9.6587 29.1329C9.68071 29.0785 9.70264 29.0285 9.70745 29.0216C9.71233 29.0148 9.72007 28.9935 9.72472 28.9742C9.73208 28.9436 9.73569 28.9412 9.75319 28.9557C9.77106 28.9704 9.77166 28.9695 9.75822 28.9475C9.74267 28.922 9.78346 28.8187 10.3515 27.4455C10.4345 27.245 10.5139 27.0517 10.528 27.016C10.542 26.9803 10.5582 26.9511 10.5638 26.9511C10.5695 26.9511 10.5709 26.9428 10.567 26.9326C10.5631 26.9224 10.566 26.914 10.5736 26.914C10.5811 26.914 10.5859 26.9099 10.5843 26.9047C10.5789 26.8882 10.6262 26.7781 10.6386 26.7781C10.6452 26.7781 10.6473 26.7726 10.6431 26.7659C10.6389 26.7591 10.6479 26.7271 10.663 26.6948C10.692 26.6325 10.6948 26.6251 10.6973 26.6042C10.6981 26.5971 10.7053 26.5951 10.7131 26.6C10.7219 26.6054 10.7241 26.6034 10.7188 26.5948C10.714 26.5871 10.717 26.5682 10.7255 26.5527C10.734 26.5372 10.7421 26.5187 10.7433 26.5114C10.7445 26.5042 10.7596 26.468 10.7767 26.4311C10.7938 26.3941 10.8342 26.3028 10.8664 26.228C10.8986 26.1532 10.9285 26.0892 10.9328 26.0858C10.937 26.0824 10.9422 26.0713 10.9444 26.0611C10.9465 26.0509 10.9627 26.012 10.9805 25.9745C11.0031 25.927 11.0103 25.9121 11.0157 25.8966C11.019 25.8871 11.0216 25.8775 11.0265 25.8603C11.0317 25.8417 11.0405 25.8291 11.0458 25.8323C11.051 25.8357 11.0547 25.8312 11.0538 25.8226C11.0506 25.7933 11.2848 25.2706 11.2975 25.2785C11.3049 25.283 11.306 25.2798 11.3003 25.2705C11.2894 25.253 11.3419 25.1316 11.3564 25.1406C11.3615 25.1438 11.3628 25.1353 11.3593 25.1216C11.3557 25.108 11.3579 25.0969 11.364 25.0969C11.3702 25.0969 11.376 25.0872 11.3769 25.0753C11.3779 25.0634 11.3988 25.0091 11.4233 24.9548C11.4478 24.9003 11.4767 24.8363 11.4874 24.8126C11.4982 24.7888 11.5275 24.7221 11.5525 24.6644C11.6149 24.5209 11.6197 24.5197 11.8183 24.5971C11.9035 24.6304 11.9701 24.6628 11.9662 24.669C11.9623 24.6753 11.9651 24.6768 11.9724 24.6722C11.9912 24.6606 12.187 24.7392 12.1776 24.7544C12.1732 24.7615 12.176 24.7632 12.1841 24.7581C12.2017 24.7473 12.6214 24.9113 12.6125 24.9256C12.6091 24.9313 12.6135 24.9331 12.6226 24.9296C12.6316 24.9262 12.7085 24.9515 12.7936 24.9859C13.2968 25.1895 13.8236 25.3878 13.8964 25.401C13.9135 25.4041 13.9358 25.41 13.946 25.4142C13.9562 25.4183 13.973 25.4228 13.9832 25.4242C14.008 25.4275 14.4676 25.5527 14.4914 25.5625C14.5016 25.5668 14.5211 25.5725 14.5347 25.575C14.5484 25.5776 14.5807 25.5854 14.6066 25.5924C14.6474 25.6033 14.6525 25.6086 14.6452 25.6322C14.6405 25.6471 14.6314 25.6627 14.6249 25.6669C14.6184 25.671 14.6145 25.6766 14.6162 25.6792C14.6248 25.6929 14.5867 25.776 14.5752 25.7688C14.5671 25.7638 14.5655 25.7664 14.5709 25.7752C14.578 25.7866 14.4141 26.2044 14.3667 26.2956C14.3614 26.306 14.3444 26.3478 14.3292 26.3886C14.3139 26.4294 14.2928 26.4795 14.2823 26.4999C14.2717 26.5203 14.2626 26.5398 14.262 26.5432C14.2572 26.572 14.2272 26.6421 14.2198 26.6421C14.2146 26.6421 14.2104 26.6502 14.2104 26.6602C14.2104 26.6791 14.1447 26.8416 14.1326 26.8522C14.1288 26.8556 14.1241 26.8667 14.1221 26.877C14.1121 26.9289 14.0142 27.1465 14.0038 27.1401C13.9971 27.1361 13.9953 27.1385 13.9997 27.1456C14.0098 27.162 13.9846 27.2354 13.9688 27.2354C13.9623 27.2354 13.9598 27.24 13.9633 27.2457C13.9685 27.2541 13.6919 27.9412 13.6316 28.0698C13.622 28.0902 13.6019 28.1375 13.587 28.1749C13.5083 28.3718 13.4325 28.5526 13.4263 28.5581C13.4224 28.5615 13.4175 28.5726 13.4153 28.5828C13.407 28.6214 13.0478 29.4831 13.0415 29.4792C13.038 29.477 13.0342 29.4872 13.0331 29.5018C13.0322 29.5165 13.0198 29.555 13.0056 29.5873C12.9915 29.6197 12.9792 29.6487 12.9782 29.6517C12.9452 29.7502 12.7549 30.1828 12.7456 30.1807C12.7383 30.1791 12.7355 30.186 12.7394 30.1961C12.7459 30.2132 12.6971 30.3471 12.6312 30.4927C12.6158 30.5266 12.6023 30.5573 12.6012 30.5607C12.5702 30.6527 12.3654 31.1484 12.357 31.152C12.3515 31.1542 12.3503 31.1615 12.3544 31.1679C12.3584 31.1745 12.3563 31.1865 12.3497 31.1947C12.343 31.2029 12.3338 31.2276 12.3291 31.2495C12.3189 31.2968 12.346 31.3271 12.4422 31.3762C12.4752 31.393 12.5049 31.4097 12.5083 31.4133C12.5117 31.4169 12.5229 31.4216 12.533 31.4239C12.5431 31.4261 12.6156 31.4559 12.6941 31.4902C12.8897 31.5755 13.2268 31.7069 13.2634 31.7122C13.2887 31.7158 13.2986 31.7066 13.3252 31.6547C13.3427 31.6206 13.3608 31.5911 13.3657 31.589C13.3705 31.5868 13.371 31.5762 13.3668 31.5653C13.3614 31.5511 13.3639 31.5484 13.3757 31.5556C13.3861 31.5621 13.3891 31.561 13.384 31.5527C13.3737 31.536 13.521 31.1909 13.5479 31.1688C13.559 31.1596 13.5615 31.1554 13.5536 31.1593C13.5428 31.1647 13.5428 31.1589 13.5536 31.1356C13.5615 31.1186 13.5725 31.1047 13.578 31.1047C13.5835 31.1046 13.5845 31.0989 13.5802 31.0919C13.5729 31.0802 13.9122 30.2572 13.9785 30.1255C14.0095 30.0639 14.092 30.0034 14.1497 30C14.1661 29.999 14.1771 29.9959 14.1742 29.9932C14.1682 29.9871 14.2597 29.945 14.2902 29.94C14.302 29.938 14.3144 29.9329 14.3178 29.9286C14.3212 29.9244 14.3993 29.8893 14.4914 29.8505C14.5834 29.8118 14.6809 29.7701 14.7082 29.7578C14.8228 29.7063 15.1682 29.5611 15.1853 29.5573C15.1956 29.555 15.2068 29.5501 15.2101 29.5462C15.2214 29.5337 16.3639 29.0495 16.3693 29.055C16.3853 29.0709 16.5564 29.4968 16.5539 29.5142C16.5522 29.5255 16.5552 29.5321 16.5606 29.5288C16.5694 29.5233 16.6041 29.6007 16.6131 29.6459C16.6152 29.6561 16.6204 29.6672 16.6247 29.6707C16.6394 29.6823 16.7572 29.9777 16.75 29.9849C16.7461 29.9888 16.7483 29.992 16.7548 29.992C16.7614 29.992 16.774 30.0129 16.7829 30.0384C16.7917 30.0639 16.8101 30.1084 16.8237 30.1372C16.8372 30.1661 16.8495 30.1967 16.851 30.2052C16.8525 30.2138 16.8634 30.2389 16.8752 30.2613C16.8871 30.2836 16.8934 30.3072 16.8893 30.3138C16.8852 30.3204 16.8871 30.3258 16.8937 30.3258C16.9132 30.3258 16.9225 30.3664 16.9055 30.3771C16.8934 30.3847 16.8944 30.3873 16.9094 30.3874C16.9231 30.3875 16.9477 30.4317 16.9876 30.5276C17.0195 30.6046 17.0465 30.6794 17.0476 30.6937C17.0487 30.7079 17.0528 30.7176 17.0568 30.7152C17.0608 30.7127 17.1047 30.8091 17.1545 30.9293C17.2042 31.0494 17.2584 31.1772 17.2748 31.2131C17.3068 31.2829 17.31 31.2973 17.2954 31.3055C17.2903 31.3083 17.2928 31.3091 17.3009 31.3072C17.309 31.3052 17.3219 31.3229 17.3297 31.3463C17.3375 31.3697 17.349 31.3889 17.3554 31.3889C17.3617 31.3889 17.4429 31.3585 17.5359 31.3213C17.6288 31.2841 17.7096 31.2565 17.7155 31.2601C17.7213 31.2638 17.7261 31.2608 17.7261 31.2536C17.7261 31.2464 17.7315 31.2406 17.7381 31.2406C17.7447 31.2406 17.7796 31.2272 17.8156 31.211C17.911 31.1679 18.1489 31.0675 18.1556 31.0675C18.1575 31.0675 18.1577 31.0698 18.1567 31.0735C18.1559 31.0744 18.1556 31.0752 18.1558 31.0758C18.1558 31.0759 18.1558 31.0759 18.1558 31.076C18.155 31.0781 18.1538 31.0805 18.1525 31.0829C18.1475 31.0914 18.1468 31.0956 18.1507 31.0922C18.1546 31.0889 18.1568 31.0817 18.1558 31.076C18.1562 31.0751 18.1565 31.0743 18.1567 31.0735C18.1628 31.0657 18.1978 31.0468 18.2404 31.0287C18.2882 31.0084 18.3318 30.9873 18.3375 30.9817C18.3431 30.9761 18.3301 30.9294 18.3086 30.8778C18.2871 30.8262 18.2727 30.7787 18.2767 30.7723C18.2807 30.7658 18.2789 30.7587 18.2727 30.7564C18.2666 30.7541 18.2391 30.6994 18.2117 30.6348C18.1844 30.5702 18.1523 30.4952 18.1405 30.4679C18.1287 30.4408 18.1176 30.413 18.1158 30.4061C18.114 30.3993 18.1034 30.3722 18.0921 30.346C18.0808 30.3197 18.0747 30.2902 18.0784 30.2804C18.0822 30.2707 18.0803 30.2657 18.0743 30.2694C18.0683 30.2732 18.0539 30.2526 18.0424 30.2237C18.0309 30.1949 18.014 30.1546 18.0048 30.1342C17.9956 30.1138 17.9568 30.0203 17.9186 29.9263C17.8804 29.8323 17.8443 29.7461 17.8384 29.7346C17.8325 29.7233 17.7516 29.5273 17.6586 29.2992C17.5469 29.0252 17.4922 28.8763 17.4975 28.8604C17.5029 28.8435 17.5018 28.8411 17.4938 28.8523C17.4855 28.8638 17.467 28.8319 17.4301 28.7426C17.4015 28.6735 17.3796 28.6153 17.3816 28.6135C17.3837 28.6117 17.5303 28.5488 17.7075 28.4739C17.8847 28.3989 18.2668 28.2364 18.5565 28.1128C18.8462 27.9892 19.0911 27.8849 19.1008 27.881C19.1129 27.8762 19.1154 27.8794 19.1091 27.8916C19.1036 27.9023 19.1063 27.9015 19.1164 27.8894C19.1371 27.8645 19.2496 27.8143 19.2643 27.8234C19.2704 27.8272 19.2753 27.825 19.2753 27.8186C19.2753 27.8066 19.5553 27.6862 19.564 27.6944C19.5668 27.6969 19.5771 27.6922 19.587 27.684C19.6061 27.6682 20.1445 27.4427 20.1494 27.4484C20.151 27.4503 20.24 27.6604 20.3471 27.9153C20.4542 28.1702 20.5525 28.4031 20.5654 28.4327C20.5783 28.4624 20.5861 28.4911 20.5827 28.4966C20.5793 28.5021 20.5824 28.5085 20.5896 28.5109C20.5969 28.5133 20.6042 28.5235 20.6059 28.5336C20.6075 28.5437 20.6149 28.563 20.6222 28.5767C20.6671 28.6594 20.8373 29.0915 20.8298 29.1036C20.8244 29.1123 20.826 29.1149 20.8337 29.1101C20.8485 29.1011 20.8655 29.1354 20.8548 29.1525C20.851 29.1588 20.853 29.1638 20.8591 29.1638C20.87 29.1638 21.0465 29.5739 21.0522 29.6122C21.0537 29.6226 21.0607 29.6386 21.0678 29.6478C21.0748 29.657 21.0877 29.6839 21.0962 29.7077C21.1048 29.7315 21.1202 29.7666 21.1304 29.7856C21.1406 29.8047 21.1457 29.8286 21.1418 29.8388C21.1379 29.849 21.1392 29.8546 21.1447 29.8512C21.1575 29.8433 21.4235 30.4823 21.4138 30.498C21.4098 30.5044 21.414 30.5142 21.4231 30.5197C21.4438 30.5323 21.5129 30.6941 21.5021 30.7048C21.4978 30.7092 21.502 30.7188 21.5117 30.7264C21.5352 30.7446 21.5946 30.8942 21.5847 30.9103C21.5801 30.9176 21.5828 30.9192 21.591 30.9142C21.5999 30.9087 21.6054 30.9141 21.6054 30.9283C21.6054 30.941 21.61 30.9566 21.6157 30.963C21.6252 30.9739 21.6454 31.0204 21.7057 31.1703C21.7214 31.2093 21.7242 31.2268 21.7139 31.221C21.7054 31.2162 21.7114 31.2248 21.7274 31.2403C21.75 31.2622 21.7528 31.2708 21.7401 31.2786C21.7271 31.2866 21.7279 31.2902 21.7436 31.2962C21.7545 31.3004 21.7787 31.341 21.7973 31.3865C21.8159 31.432 21.8437 31.497 21.8589 31.5311C21.8741 31.565 21.8967 31.6198 21.9092 31.6528C21.9217 31.6857 21.9389 31.7153 21.9474 31.7187C21.956 31.7219 22.0512 31.6895 22.1591 31.6465C22.2669 31.6036 22.358 31.5682 22.3614 31.5677C22.3648 31.5673 22.3927 31.5552 22.4234 31.5409C22.531 31.4909 22.5748 31.4757 22.5877 31.4836C22.5949 31.488 22.5973 31.4861 22.5932 31.4795C22.5865 31.4687 22.696 31.4208 22.7159 31.4259C22.7205 31.4271 22.7277 31.4231 22.7318 31.417C22.736 31.411 22.783 31.3871 22.8363 31.364C22.8897 31.3408 22.9351 31.3189 22.9373 31.3152C22.9395 31.3115 22.9316 31.2863 22.9196 31.2591C22.8645 31.1334 22.8326 31.0399 22.8403 31.0265C22.8449 31.0184 22.8442 31.0159 22.8387 31.021C22.8283 31.0303 22.7734 30.9272 22.767 30.8864C22.7651 30.8738 22.7601 30.8579 22.7559 30.8512C22.7518 30.8444 22.7135 30.7526 22.6709 30.6472C22.6283 30.5418 22.5803 30.4268 22.5641 30.3914C22.5481 30.3562 22.5349 30.3241 22.5349 30.3202C22.5349 30.3163 22.5243 30.2896 22.5114 30.2608C22.4985 30.2319 22.47 30.1643 22.4482 30.1104C22.4262 30.0565 22.4037 30.0036 22.398 29.9929C22.3883 29.9747 22.3442 29.8572 22.3421 29.8437C22.3409 29.8363 22.3131 29.7712 22.2997 29.7444C22.2945 29.7341 22.2137 29.5394 22.1201 29.3118C22.0265 29.0843 21.9419 28.8799 21.932 28.8577C21.922 28.8355 21.9178 28.8111 21.9226 28.8033C21.9276 28.7953 21.926 28.7925 21.9189 28.7968C21.9118 28.8012 21.8898 28.7631 21.868 28.7091C21.8469 28.6567 21.8072 28.5588 21.7798 28.4916C21.7523 28.4244 21.7334 28.3633 21.7377 28.3556C21.7421 28.348 21.741 28.3461 21.7352 28.3513C21.7267 28.359 21.6755 28.2573 21.662 28.2058C21.6602 28.199 21.6468 28.1665 21.6321 28.1337C21.6174 28.1008 21.6054 28.0713 21.6054 28.0682C21.6054 28.0649 21.5944 28.0383 21.581 28.0088C21.5675 27.9795 21.5306 27.8922 21.4989 27.8148C21.4672 27.7375 21.4314 27.652 21.4193 27.6248C21.4072 27.5976 21.3794 27.5313 21.3575 27.4773C21.3198 27.3843 21.3126 27.368 21.2831 27.3097C21.2763 27.2963 21.2707 27.2793 21.2707 27.2722C21.2707 27.265 21.2518 27.2163 21.2286 27.1638C21.1457 26.9766 21.1193 26.9037 21.1287 26.8885C21.1342 26.8796 21.1331 26.8763 21.1261 26.8806C21.1194 26.8847 21.087 26.823 21.054 26.7434C21.0211 26.6639 20.9819 26.571 20.967 26.537C20.9384 26.4719 20.8815 26.3312 20.8795 26.3207C20.8788 26.3173 20.8672 26.2894 20.8535 26.2589C20.8398 26.2283 20.7656 26.0503 20.6886 25.8633C20.6115 25.6764 20.5346 25.4928 20.5176 25.4554C20.5006 25.418 20.4823 25.3762 20.4768 25.3627C20.4714 25.3491 20.4473 25.2912 20.4232 25.234C20.3991 25.1768 20.3823 25.1253 20.3858 25.1196C20.3893 25.1139 20.3854 25.1092 20.377 25.1092C20.3687 25.1092 20.3654 25.1058 20.3696 25.1015C20.374 25.0972 20.3693 25.082 20.3594 25.0678C20.337 25.0359 20.3353 25.0056 20.3567 25.0178C20.3652 25.0227 20.3684 25.0226 20.3639 25.0175C20.3594 25.0124 20.3518 25.0091 20.347 25.0101C20.3371 25.012 20.3178 24.9769 20.2882 24.9027C20.2768 24.8741 20.2568 24.8269 20.2436 24.7977C20.2305 24.7684 20.2022 24.7001 20.1806 24.6457C20.159 24.5913 20.1335 24.5301 20.1238 24.5097C20.0996 24.4586 19.9801 24.1665 19.9772 24.1512C19.9759 24.1445 19.9714 24.1333 19.9671 24.1265C19.9629 24.1197 19.8916 23.95 19.8087 23.7495C19.7258 23.549 19.6478 23.3626 19.6355 23.3354C19.6232 23.3082 19.5963 23.2442 19.5757 23.1932C19.4822 22.9619 19.334 22.6022 19.3166 22.5643C19.3061 22.5414 19.2961 22.5163 19.2945 22.5087C19.2892 22.4842 19.2633 22.4216 19.2446 22.3884C19.2346 22.3706 19.23 22.3526 19.2343 22.3482C19.2387 22.3438 19.2357 22.3403 19.2278 22.3403C19.2199 22.3403 19.2134 22.3337 19.2134 22.3256C19.2134 22.3176 19.203 22.2884 19.1903 22.2607C19.1777 22.2331 19.1464 22.1577 19.1209 22.0931C19.0954 22.0285 19.0665 21.9575 19.0565 21.9353C19.0466 21.9131 19.0425 21.8886 19.0473 21.8809C19.0522 21.873 19.0506 21.8701 19.0439 21.8743C19.0343 21.8801 18.982 21.7659 18.9059 21.5729C18.902 21.5632 18.9851 21.582 19.0083 21.596C19.0149 21.6 19.0316 21.6045 19.0455 21.6059C19.0765 21.6092 19.4254 21.7092 19.4424 21.7197C19.4491 21.7239 19.4631 21.7281 19.4734 21.7291C19.5297 21.7347 19.6949 21.7893 19.6882 21.8001C19.6836 21.8076 19.6868 21.8087 19.6961 21.803C19.7149 21.7913 20.0824 21.8952 20.0735 21.9096C20.07 21.9152 20.0752 21.9166 20.0851 21.9129C20.1013 21.9067 20.3554 21.9738 20.3846 21.992C20.3914 21.9962 20.4025 21.9999 20.4094 22.0002C20.4441 22.0017 20.5519 22.0351 20.5519 22.0445C20.5519 22.0503 20.5594 22.0523 20.5685 22.0488C20.5777 22.0453 20.6125 22.0532 20.646 22.0664C20.6795 22.0795 20.7111 22.0905 20.7163 22.0908C20.7456 22.0921 20.7998 22.1086 20.7998 22.1161C20.7998 22.1209 20.8161 22.1261 20.8361 22.1276C20.8655 22.1299 20.9732 22.1584 21.057 22.1861C21.0657 22.1889 21.074 22.1915 21.0757 22.1919C21.0773 22.1924 21.1121 22.2026 21.153 22.2148C21.219 22.2345 21.2272 22.2404 21.2262 22.2681C21.2241 22.3223 21.1445 22.6246 21.1322 22.6246C21.1258 22.6246 21.1237 22.6296 21.1274 22.6357C21.1377 22.6523 21.1207 22.7241 21.1083 22.7165C21.1023 22.7128 21.1004 22.7174 21.1039 22.7265C21.1074 22.7357 21.1018 22.7836 21.0914 22.8331C21.081 22.8824 21.0724 22.9284 21.0724 22.9352C21.0724 22.9449 21.2692 23.0465 21.2955 23.0504C21.3219 23.0543 22.1218 23.3867 22.1288 23.3967C22.1339 23.4037 22.138 23.4055 22.1381 23.4004C22.1383 23.3917 22.2089 23.4166 22.3081 23.4604C22.334 23.4718 22.3608 23.4826 22.3676 23.4844C22.3744 23.4861 22.6812 23.607 23.0493 23.753C23.4174 23.8989 25.008 24.474 25.0234 24.4786C25.0392 24.4835 25.0478 24.4931 25.0431 24.5006C25.0382 24.5086 25.0407 24.5105 25.0492 24.5051C25.0643 24.4959 25.8474 24.7916 25.8547 24.8092C25.8569 24.8148 25.8629 24.8168 25.8681 24.8137C25.8789 24.807 26.0951 24.8863 26.0873 24.8942C26.0844 24.8972 26.0968 24.9007 26.1149 24.9021C26.1331 24.9035 26.1588 24.9063 26.1721 24.9083C26.1923 24.9113 26.2015 24.8951 26.2294 24.8068C26.2509 24.739 26.2684 24.7031 26.2787 24.7056C26.2908 24.7085 26.2913 24.7054 26.2806 24.6925C26.2634 24.6718 26.2857 24.587 26.3149 24.5618C26.3285 24.5501 26.3288 24.548 26.3163 24.5546C26.3042 24.5608 26.3007 24.5582 26.3052 24.5462C26.3088 24.5366 26.3245 24.4802 26.34 24.421C26.3557 24.3616 26.3732 24.316 26.3789 24.3196C26.3846 24.3232 26.3864 24.3184 26.3828 24.3091C26.3741 24.2862 26.8627 22.4661 26.9063 22.3593C26.921 22.3234 26.9235 22.3028 26.9241 22.2094C26.9247 22.1331 26.9187 22.1024 26.893 22.0482C26.8191 21.8922 26.7266 21.8294 26.5038 21.7833C26.424 21.7668 26.3391 21.7506 26.3152 21.7473C26.2914 21.7439 26.2329 21.7332 26.1852 21.7232C26.1374 21.7134 26.0008 21.6875 25.8815 21.6658C25.7622 21.6441 25.6627 21.6216 25.6605 21.6158C25.6581 21.6099 25.6512 21.6082 25.645 21.6121C25.6277 21.6228 23.9599 21.1614 23.4316 21.0064C23.3356 20.9782 23.2772 20.9602 23.2733 20.9569C23.2566 20.9431 23.2525 20.9425 23.2596 20.9544C23.2678 20.9684 23.2608 20.9699 23.2215 20.9623C23.1949 20.9572 23.1564 20.9504 23.136 20.9471C23.1156 20.9439 23.0737 20.9358 23.043 20.9292C23.0124 20.9227 22.9747 20.9175 22.9594 20.9179C22.944 20.9182 22.9315 20.9143 22.9315 20.9093C22.9315 20.9043 22.9134 20.8999 22.8912 20.8997C22.8473 20.8992 22.5278 20.847 22.4978 20.8354C22.4875 20.8315 22.475 20.8291 22.47 20.8302C22.4649 20.8313 22.3115 20.8076 22.1291 20.7777C21.7305 20.7123 21.6805 20.7029 21.6663 20.7212C21.6635 20.7249 21.662 20.7298 21.6595 20.7355C21.6526 20.7513 21.6308 20.8198 21.6111 20.8878C21.5914 20.9558 21.5711 21.0132 21.5662 21.0153C21.5612 21.0174 21.5603 21.0272 21.564 21.0369C21.5678 21.0467 21.5648 21.0547 21.5575 21.0547C21.5502 21.0547 21.5477 21.064 21.5521 21.0753C21.5579 21.0902 21.5555 21.093 21.5436 21.0857C21.5331 21.0793 21.5301 21.0804 21.5353 21.0887C21.5461 21.106 21.5316 21.143 21.5174 21.1344C21.5114 21.1306 21.5102 21.1372 21.5147 21.1489C21.5213 21.166 21.5183 21.1685 21.499 21.1609C21.4751 21.1516 21.2637 21.0939 21.212 21.0826C21.1967 21.0793 21.1873 21.0717 21.191 21.0658C21.1946 21.0598 21.1904 21.0576 21.1815 21.0609C21.1587 21.0692 20.4867 20.8767 20.4982 20.8651C20.5035 20.8599 20.4996 20.8586 20.4895 20.8623C20.4654 20.8712 19.7919 20.6796 19.8042 20.6673C19.8094 20.6621 19.8055 20.6609 19.7955 20.6645C19.7698 20.674 19.0984 20.4815 19.1105 20.4682C19.116 20.4622 19.1136 20.4613 19.1049 20.4663C19.0879 20.476 18.4661 20.3022 18.4594 20.2859C18.4571 20.2803 18.451 20.2784 18.4457 20.2817C18.4404 20.2849 18.3391 20.2596 18.2205 20.2254C18.102 20.1911 17.9766 20.1554 17.9419 20.146C17.6547 20.0681 16.9118 19.8514 16.9009 19.8424C16.8934 19.8362 16.8848 19.8336 16.8818 19.8366C16.8788 19.8395 16.8292 19.828 16.7714 19.8109C16.7136 19.7938 16.6249 19.7687 16.574 19.7551C16.5232 19.7415 16.4758 19.7267 16.4687 19.7222C16.4616 19.7178 16.4502 19.7137 16.4433 19.7131C16.4278 19.7119 16.4062 19.7061 16.1397 19.6312C16.0204 19.5977 15.9144 19.5669 15.9042 19.5626C15.897 19.5596 15.8923 19.5577 15.8875 19.5559C15.8771 19.5522 15.8663 19.5498 15.8298 19.5413C15.806 19.5357 15.7725 19.5254 15.7555 19.5184C15.7384 19.5114 15.7189 19.5048 15.7121 19.5038C15.65 19.495 15.6083 19.4801 15.615 19.4691C15.6195 19.4618 15.6171 19.4599 15.6092 19.4648C15.5924 19.4752 15.4333 19.4344 15.4333 19.4197C15.4333 19.4139 15.4286 19.412 15.423 19.4155C15.4136 19.4213 15.3176 19.3972 15.2721 19.3777C15.2619 19.3733 15.248 19.3691 15.2412 19.3683C15.1924 19.3629 15.0999 19.332 15.1055 19.323C15.1093 19.3169 15.1044 19.315 15.0948 19.3187C15.0736 19.3269 14.5985 19.1903 14.5925 19.1744C14.5902 19.1683 14.5836 19.1661 14.5778 19.1698C14.5636 19.1785 14.4169 19.1373 14.4169 19.1247C14.4169 19.1192 14.4096 19.1175 14.4005 19.121C14.3915 19.1244 14.3677 19.1207 14.3478 19.1126C14.3279 19.1044 14.3011 19.0958 14.2883 19.0934C14.2484 19.0857 13.7051 18.9264 13.6921 18.9186C13.6854 18.9145 13.6715 18.9104 13.6612 18.9094C13.6361 18.907 13.4522 18.8547 13.413 18.8388C13.396 18.8318 13.3737 18.8249 13.3635 18.8234C13.3532 18.8219 13.2752 18.8001 13.19 18.7749C13.1048 18.7497 13.005 18.721 12.9684 18.7111C12.9317 18.7012 12.8955 18.6893 12.888 18.6847C12.8805 18.6801 12.8659 18.6755 12.8556 18.6745C12.8393 18.673 11.9333 18.4098 11.7957 18.3666C11.7684 18.358 11.6931 18.3358 11.6283 18.3171C11.5636 18.2985 11.4493 18.2649 11.3743 18.2426C11.2993 18.2202 11.0137 18.1364 10.7397 18.0563C10.4655 17.9763 10.2442 17.9062 10.2476 17.9007C10.2511 17.895 10.2455 17.8937 10.2352 17.8976C10.2249 17.9016 10.1953 17.8976 10.1695 17.8887C10.1437 17.8799 10.1197 17.8723 10.1163 17.8717C10.1129 17.8712 10.0722 17.8603 10.0259 17.8476C9.96199 17.83 9.94336 17.82 9.94869 17.806C9.95425 17.7917 9.95207 17.7908 9.93878 17.8018C9.92571 17.8127 9.87111 17.801 9.70369 17.7518C9.58375 17.7165 9.48843 17.6833 9.49174 17.6778C9.49512 17.6724 9.48986 17.671 9.4801 17.6748C9.46417 17.6808 9.29886 17.6382 9.26732 17.62C9.26048 17.616 9.24381 17.611 9.23014 17.6089C9.19762 17.6039 8.78745 17.4817 8.77213 17.4724C8.7656 17.4684 8.74885 17.4638 8.73488 17.4621C8.71062 17.4591 8.14679 17.2917 8.10848 17.2762C8.09827 17.272 8.08152 17.2675 8.0713 17.2661C8.04674 17.2628 7.51521 17.1029 7.44813 17.0788C7.41937 17.0685 7.38189 17.0573 7.36491 17.0542C7.34787 17.0509 7.27253 17.0294 7.19758 17.0063C7.12254 16.9832 6.96639 16.9355 6.8505 16.9004C6.73469 16.8653 6.63487 16.8319 6.62871 16.8263C6.6224 16.8204 6.63089 16.7883 6.64891 16.7505C6.66611 16.7144 6.69826 16.645 6.72027 16.5963C6.75083 16.5287 6.76526 16.5091 6.78065 16.514C6.79838 16.5195 6.7986 16.5185 6.78238 16.5059C6.76826 16.4949 6.76751 16.4899 6.77938 16.4851C6.78794 16.4817 6.79184 16.4739 6.78809 16.4678C6.77284 16.4433 7.14981 15.7351 7.17114 15.7483C7.17752 15.7522 7.17895 15.7492 7.17422 15.7416C7.16956 15.734 7.17654 15.7169 7.18991 15.7037C7.20321 15.6904 7.21087 15.6763 7.20689 15.6723C7.20291 15.6683 7.20614 15.6651 7.2141 15.6651C7.22206 15.6651 7.22852 15.6589 7.22852 15.6513C7.22852 15.6294 7.6546 15.0357 7.69321 15.0038C7.7014 14.997 7.70951 14.9858 7.71109 14.979C7.71274 14.9722 7.73437 14.9389 7.75923 14.9048C7.84718 14.7846 7.87475 14.7354 7.86558 14.7148C7.8607 14.7037 7.8577 14.6902 7.85897 14.6845C7.86025 14.6789 7.85537 14.678 7.84816 14.6824C7.83344 14.6914 7.74098 14.6155 7.74631 14.5986C7.74819 14.5927 7.74391 14.5914 7.73685 14.5958C7.72979 14.6 7.70733 14.587 7.68698 14.5667C7.66662 14.5464 7.64995 14.5323 7.64995 14.5354C7.64995 14.5385 7.59835 14.5011 7.53526 14.4524C7.47224 14.4036 7.42132 14.3565 7.42222 14.3479C7.42305 14.3391 7.41666 14.3348 7.40795 14.3381C7.393 14.3438 6.99155 14.0546 6.98277 14.0318C6.98044 14.0258 6.97293 14.021 6.96609 14.021C6.94416 14.021 6.88092 13.9701 6.88821 13.9584C6.89204 13.9522 6.88761 13.95 6.87829 13.9536C6.8689 13.9572 6.84667 13.9466 6.8288 13.9301C6.81092 13.9135 6.79327 13.903 6.78959 13.9067ZM6.37657 19.8768L6.36245 19.8793C6.36373 19.8749 6.36703 19.8696 6.37184 19.8649C6.38408 19.8528 6.38551 19.8542 6.37875 19.8718C6.37808 19.8735 6.3774 19.8752 6.37657 19.8768ZM7.27584 14.2483C7.28162 14.2519 7.28635 14.2467 7.28635 14.2368C7.28635 14.216 7.28245 14.2142 7.27246 14.2303C7.26855 14.2366 7.27005 14.2447 7.27584 14.2483ZM7.35252 14.2744C7.35928 14.2786 7.36491 14.2762 7.36491 14.269C7.36491 14.2617 7.35928 14.2559 7.35252 14.2559C7.34569 14.2559 7.34005 14.2584 7.34005 14.2613C7.34005 14.2643 7.34569 14.2703 7.35252 14.2744ZM5.27369 16.1917C5.2778 16.1959 5.2885 16.1963 5.29743 16.1927C5.30732 16.1888 5.30438 16.1858 5.28995 16.1852C5.27688 16.1847 5.26957 16.1876 5.27369 16.1917ZM4.84894 17.7233C4.85575 17.7274 4.86133 17.725 4.86133 17.7178C4.86133 17.7107 4.85575 17.7047 4.84894 17.7047C4.84212 17.7047 4.83654 17.7072 4.83654 17.7102C4.83654 17.7132 4.84212 17.7191 4.84894 17.7233ZM13.8854 20.1985C13.8725 20.1697 13.8587 20.1364 13.8547 20.1245C13.8505 20.1116 13.8538 20.1033 13.8627 20.1038C13.889 20.1055 13.9519 20.1308 13.9597 20.1429C13.9639 20.1492 13.9695 20.1531 13.9721 20.1515C13.9856 20.1433 14.0942 20.1679 14.0881 20.1777C14.0842 20.184 14.0885 20.1862 14.0978 20.1827C14.107 20.1792 14.198 20.2016 14.2998 20.2325C14.4017 20.2635 14.4935 20.2909 14.5037 20.2934C14.6562 20.3314 14.7258 20.3557 14.7118 20.3657C14.7009 20.3735 14.7037 20.3746 14.7206 20.369C14.7498 20.3594 15.869 20.6831 15.8594 20.6984C15.8561 20.7038 15.8608 20.7054 15.8698 20.702C15.8835 20.6968 16.1911 20.7786 16.2513 20.8035C16.2615 20.8077 16.2754 20.8125 16.2822 20.814C16.2891 20.8155 16.3294 20.8265 16.3719 20.8384C16.4411 20.8578 16.4485 20.8629 16.4424 20.8872C16.4363 20.9113 16.4439 20.9169 16.5112 20.9372C16.5543 20.9501 16.5844 20.9658 16.5811 20.9733C16.567 21.0054 16.4067 21.3921 16.3669 21.4903C16.3428 21.5498 16.3181 21.5954 16.312 21.5917C16.306 21.588 16.304 21.5925 16.3075 21.6017C16.3138 21.6179 16.185 21.9432 16.1672 21.9566C16.1623 21.9603 16.1583 21.9692 16.1583 21.9764C16.1583 22.003 15.9991 22.3762 15.9902 22.3707C15.9851 22.3675 15.984 22.377 15.9879 22.3916C15.9931 22.4115 15.9907 22.4157 15.9786 22.4083C15.968 22.4018 15.9653 22.4031 15.9708 22.412C15.9835 22.4324 15.8887 22.6556 15.8552 22.6842C15.8419 22.6956 15.8414 22.6979 15.8537 22.6915C15.8672 22.6845 15.869 22.6879 15.8617 22.706C15.8564 22.719 15.8465 22.745 15.8398 22.7637C15.833 22.7824 15.8233 22.7977 15.8183 22.7977C15.8133 22.7977 15.8092 22.8048 15.8092 22.8134C15.8092 22.8275 15.7399 23.0037 15.6817 23.1376C15.6699 23.1648 15.6305 23.2605 15.5941 23.3502C15.5577 23.4399 15.5235 23.5106 15.5179 23.5072C15.5124 23.5038 15.5115 23.5105 15.516 23.5222C15.5221 23.5377 15.5198 23.5407 15.5078 23.5333C15.4968 23.5265 15.4943 23.5279 15.5003 23.5375C15.5121 23.5566 15.4816 23.639 15.4662 23.6295C15.4596 23.6254 15.4578 23.6278 15.4621 23.6348C15.469 23.646 15.3975 23.8422 15.3896 23.8334C15.388 23.8314 15.3631 23.7714 15.3344 23.7C15.3057 23.6287 15.2759 23.5622 15.2679 23.5524C15.2568 23.5386 15.257 23.5367 15.2691 23.5439C15.2776 23.549 15.2738 23.5348 15.2608 23.5123C15.2476 23.4898 15.2351 23.4602 15.2328 23.4466C15.2306 23.433 15.2255 23.4191 15.2216 23.4157C15.2082 23.404 15.1244 23.1932 15.1332 23.193C15.138 23.193 15.1362 23.1887 15.129 23.1838C15.1079 23.169 14.9855 22.8597 14.9948 22.8447C14.9995 22.8371 14.9977 22.8343 14.9909 22.8386C14.9814 22.8444 14.8847 22.6327 14.8818 22.5999C14.8816 22.5965 14.8777 22.588 14.8733 22.5811C14.8688 22.5742 14.8089 22.4328 14.74 22.2669C14.6585 22.0703 14.6174 21.9564 14.622 21.9396C14.627 21.922 14.6257 21.9189 14.618 21.93C14.6099 21.9416 14.5994 21.9285 14.5806 21.8834C14.5662 21.8489 14.5544 21.8178 14.5544 21.8144C14.5544 21.8109 14.5463 21.793 14.5364 21.7744C14.4905 21.6882 14.3782 21.3887 14.3866 21.3751C14.3922 21.366 14.3909 21.363 14.3831 21.3679C14.3703 21.3758 14.3384 21.3146 14.3384 21.282C14.3384 21.2726 14.3339 21.2648 14.3281 21.2648C14.3224 21.2648 14.3178 21.2592 14.3178 21.2524C14.3178 21.2456 14.3039 21.2111 14.2868 21.1759C14.2698 21.1407 14.2558 21.1051 14.2558 21.0968C14.2558 21.0885 14.2427 21.0548 14.2266 21.0218C14.1978 20.9628 14.1676 20.8917 14.1254 20.7827C14.1134 20.7522 14.0929 20.7026 14.0797 20.6728C14.0665 20.6429 14.055 20.6082 14.054 20.5955C14.053 20.5829 14.0487 20.5726 14.0445 20.5726C14.0402 20.5726 14.021 20.5323 14.0018 20.483C13.9826 20.4337 13.9538 20.3645 13.9378 20.3293C13.9219 20.294 13.9088 20.262 13.9088 20.258C13.9088 20.2541 13.8982 20.2273 13.8854 20.1985ZM25.3919 21.5269C25.4016 21.5269 25.4066 21.5223 25.4031 21.5167C25.3995 21.511 25.3946 21.5064 25.3919 21.5064C25.3893 21.5064 25.3844 21.511 25.3808 21.5167C25.3773 21.5223 25.3823 21.5269 25.3919 21.5269ZM12.9618 21.2047C12.9581 21.1989 12.9673 21.1655 12.9821 21.1306C12.9969 21.0957 13.0129 21.0671 13.0176 21.0671C13.0312 21.0671 13.0421 21.1049 13.0331 21.1207C13.0286 21.1286 13.0296 21.1307 13.0353 21.1255C13.0485 21.1137 13.1052 21.2281 13.0971 21.2501C13.0938 21.2589 13.0958 21.2632 13.1015 21.2597C13.1072 21.2562 13.1441 21.3296 13.1836 21.4229C13.223 21.5161 13.2708 21.6262 13.2897 21.6675C13.3087 21.7088 13.3261 21.7533 13.3284 21.7664C13.3306 21.7795 13.3394 21.7975 13.348 21.8065C13.3616 21.8209 13.366 21.8392 13.3624 21.866C13.3619 21.8704 13.3668 21.8773 13.3733 21.8816C13.3905 21.8924 13.4874 22.124 13.4874 22.1542C13.4874 22.1681 13.4923 22.1796 13.4983 22.1796C13.5106 22.1796 13.6151 22.4231 13.615 22.4516C13.615 22.4617 13.6245 22.484 13.6363 22.501C13.6583 22.5326 13.7353 22.7086 13.7353 22.7271C13.7353 22.7327 13.7289 22.7333 13.721 22.7285C13.712 22.723 13.7101 22.7251 13.7156 22.7341C13.7206 22.7421 13.7289 22.746 13.7341 22.7428C13.7481 22.7341 13.8008 22.8684 13.7901 22.8857C13.7844 22.8949 13.7863 22.8971 13.7953 22.8916C13.8032 22.8867 13.8104 22.8886 13.8112 22.8958C13.8137 22.9169 13.8164 22.9238 13.852 23.0011C13.8707 23.0415 13.8867 23.0846 13.8876 23.0968C13.8885 23.109 13.893 23.119 13.8974 23.119C13.9117 23.119 13.9481 23.2292 13.9388 23.2443C13.9338 23.2524 13.9351 23.2556 13.9419 23.2514C13.9577 23.2416 14.112 23.608 14.1 23.6272C14.0947 23.6358 14.0961 23.6388 14.1033 23.6344C14.1103 23.6301 14.1223 23.6407 14.1302 23.658C14.1415 23.6827 14.1412 23.6874 14.1289 23.6802C14.1203 23.6752 14.1229 23.682 14.1345 23.6953C14.1646 23.7295 14.1963 23.8099 14.1861 23.8261C14.1806 23.8351 14.1833 23.8363 14.1941 23.8297C14.2059 23.8224 14.2083 23.8252 14.2026 23.8402C14.1982 23.8515 14.199 23.8608 14.2044 23.8608C14.2098 23.8608 14.2327 23.9039 14.2553 23.9566C14.2779 24.0093 14.3089 24.0802 14.3242 24.1141C14.4075 24.2989 14.4296 24.3571 14.4218 24.3698C14.4169 24.3776 14.4186 24.3804 14.4256 24.3761C14.4325 24.3718 14.4524 24.4015 14.4699 24.4421C14.4919 24.4928 14.497 24.5159 14.4862 24.5159C14.4777 24.5159 14.4668 24.5121 14.4621 24.5073C14.4573 24.5026 14.4466 24.4976 14.4383 24.4963C14.4147 24.4925 14.1318 24.3937 14.1154 24.3836C14.1075 24.3785 14.0898 24.3727 14.0762 24.3707C14.0625 24.3686 14.0495 24.3614 14.0472 24.3548C14.0449 24.3481 14.0379 24.3458 14.0317 24.3497C14.0255 24.3535 14.0134 24.3523 14.0049 24.347C13.9963 24.3417 13.9784 24.3357 13.9651 24.3336C13.9518 24.3315 13.9371 24.3236 13.9323 24.3161C13.9277 24.3085 13.9079 24.301 13.8884 24.2994C13.8689 24.2977 13.8001 24.277 13.7353 24.2531C13.6705 24.2292 13.5339 24.1802 13.4317 24.1442C13.3294 24.1082 13.243 24.0755 13.2395 24.0717C13.2362 24.0678 13.2277 24.0645 13.221 24.0643C13.2141 24.0642 13.1765 24.0534 13.1373 24.0404C13.0911 24.0252 13.066 24.0101 13.0658 23.9975C13.0657 23.9829 13.0633 23.9819 13.0556 23.9941C13.05 24.0028 13.0361 24.0063 13.0248 24.002C13.0135 23.9977 13.0072 23.9893 13.011 23.9832C13.0147 23.9772 13.01 23.9752 13.0006 23.9789C12.9849 23.9848 12.3242 23.7545 12.31 23.7381C12.3066 23.7342 12.293 23.7291 12.2798 23.7268C12.2537 23.7222 11.9601 23.6148 11.9522 23.6069C11.9472 23.6018 11.9979 23.468 12.0129 23.4466C12.0178 23.4398 12.0285 23.4134 12.0368 23.3878C12.0456 23.3603 12.0572 23.3446 12.0651 23.3495C12.073 23.3545 12.0748 23.3519 12.0693 23.3431C12.0606 23.3291 12.1817 23.0195 12.2185 22.9614C12.2283 22.9461 12.2335 22.9336 12.2302 22.9336C12.2225 22.9336 12.3086 22.7323 12.3201 22.7238C12.3247 22.7202 12.3293 22.7082 12.3301 22.697C12.3331 22.6574 12.6261 21.9719 12.6372 21.9787C12.6434 21.9825 12.6447 21.9794 12.6399 21.9719C12.6324 21.9596 12.8105 21.5147 12.8291 21.4997C12.8333 21.4963 12.8382 21.4851 12.84 21.475C12.8473 21.4343 12.9456 21.2154 12.9566 21.2154C12.9631 21.2154 12.9654 21.2106 12.9618 21.2047ZM11.7185 21.1363C11.7226 21.1405 11.7332 21.1409 11.7422 21.1373C11.7521 21.1334 11.7492 21.1304 11.7348 21.1298C11.7217 21.1293 11.7143 21.1322 11.7185 21.1363ZM17.4413 21.7778C17.4531 21.7506 17.4948 21.6533 17.5339 21.5615C17.573 21.4697 17.6061 21.3933 17.6076 21.3917C17.6153 21.3828 17.6508 21.4789 17.6438 21.4901C17.6393 21.4975 17.6408 21.5002 17.6474 21.4962C17.6539 21.4922 17.6906 21.5609 17.7289 21.6488C17.7672 21.7368 17.7923 21.8088 17.7847 21.8088C17.7772 21.8088 17.78 21.8157 17.7911 21.8242C17.8069 21.8362 17.8762 21.9724 17.873 21.9851C17.8721 21.9888 17.9057 22.066 17.9509 22.1638C17.9704 22.2062 17.9863 22.2441 17.9863 22.248C17.9863 22.2519 17.9979 22.2804 18.012 22.3112C18.0261 22.3422 18.0385 22.3778 18.0394 22.3904C18.0403 22.4031 18.0436 22.4108 18.0467 22.4078C18.0499 22.4047 18.0798 22.4675 18.1133 22.5474C18.1468 22.6273 18.2107 22.7783 18.2551 22.883C18.2997 22.9877 18.3371 23.0795 18.3382 23.087C18.3393 23.0944 18.3444 23.107 18.3493 23.115C18.3748 23.1556 18.4305 23.3103 18.4238 23.322C18.4196 23.3294 18.4208 23.3312 18.4265 23.3261C18.4359 23.3175 18.527 23.5164 18.5345 23.5623C18.5363 23.5734 18.5414 23.5854 18.5457 23.5888C18.5614 23.6012 18.68 23.9009 18.6733 23.9116C18.6697 23.9176 18.6717 23.9226 18.6779 23.9226C18.6842 23.9226 18.7101 23.974 18.7357 24.0369C18.7612 24.0998 18.7928 24.1752 18.806 24.2044C18.8191 24.2336 18.8266 24.2628 18.8226 24.2693C18.8186 24.2758 18.8207 24.281 18.8274 24.281C18.8341 24.281 18.8492 24.3074 18.8611 24.3397C18.873 24.372 18.8951 24.4263 18.9101 24.4603C18.9682 24.5913 19.044 24.7818 19.044 24.7968C19.044 24.8055 19.0475 24.8126 19.0519 24.8126C19.0604 24.8126 19.1079 24.9336 19.1082 24.9561C19.1083 24.9637 19.1148 24.9776 19.1226 24.9871C19.1304 24.9965 19.1702 25.0876 19.2111 25.1896C19.252 25.2915 19.3199 25.4557 19.362 25.5543C19.4041 25.6529 19.4401 25.7391 19.4419 25.7458C19.4437 25.7527 19.4567 25.7833 19.4708 25.8138C19.5595 26.0063 19.7072 26.3632 19.7017 26.372C19.6982 26.3778 19.7012 26.3825 19.7084 26.3825C19.7156 26.3825 19.7215 26.3908 19.7215 26.4011C19.7215 26.4112 19.7156 26.4196 19.7083 26.4196C19.7011 26.4196 19.6663 26.433 19.6309 26.4494C19.5319 26.4953 19.2933 26.603 19.1762 26.6545C19.1182 26.68 19.0225 26.7236 18.9635 26.7513C18.8022 26.8268 18.766 26.8405 18.7504 26.8316C18.7426 26.8272 18.7404 26.8282 18.7456 26.8339C18.7539 26.843 18.5346 26.9434 18.1599 27.102C18.0951 27.1294 18.0334 27.1562 18.0226 27.1615C18.0119 27.1668 17.9282 27.2026 17.8367 27.2411C17.7452 27.2796 17.6536 27.3193 17.6332 27.3293C17.6127 27.3394 17.454 27.4081 17.2805 27.482L16.9651 27.6165L16.9425 27.5661C16.9301 27.5384 16.9188 27.503 16.9176 27.4877C16.9163 27.4723 16.9109 27.4624 16.9055 27.4657C16.8971 27.4709 16.8931 27.4525 16.8967 27.4253C16.8973 27.421 16.8925 27.414 16.8859 27.4099C16.8654 27.397 16.7696 27.1501 16.7791 27.1348C16.7843 27.1263 16.7827 27.1237 16.775 27.1284C16.7643 27.135 16.7465 27.113 16.7418 27.0871C16.7412 27.0837 16.7132 27.0141 16.6795 26.9326C16.646 26.851 16.6192 26.7744 16.6201 26.7623C16.621 26.7492 16.6161 26.7438 16.6078 26.7489C16.5989 26.7544 16.5968 26.7501 16.602 26.7368C16.6063 26.7255 16.6053 26.7163 16.5995 26.7163C16.5835 26.7163 16.3111 26.0497 16.3208 26.0341C16.3259 26.026 16.3239 26.0236 16.3161 26.0284C16.3056 26.0349 16.2761 25.977 16.2699 25.9375C16.2694 25.934 16.2625 25.9198 16.2547 25.9057C16.2468 25.8917 16.223 25.836 16.2018 25.7821C16.1806 25.7282 16.1533 25.6618 16.141 25.6346C16.1288 25.6074 16.1053 25.5518 16.089 25.511C16.0726 25.4702 16.0549 25.435 16.0498 25.4327C16.0447 25.4304 16.0405 25.4215 16.0405 25.4127C16.0405 25.404 16.0287 25.3683 16.0141 25.3334C15.9845 25.2624 15.9865 25.2523 16.0646 25.0784C16.0829 25.0376 16.1165 24.9587 16.1392 24.9033C16.1708 24.826 16.1852 24.8038 16.2003 24.8086C16.2154 24.8134 16.2163 24.8121 16.204 24.8033C16.1912 24.7941 16.1991 24.7637 16.2425 24.6569C16.2725 24.5827 16.3111 24.4915 16.328 24.4541C16.345 24.4167 16.3689 24.361 16.3811 24.3305C16.3933 24.2999 16.411 24.2573 16.4203 24.2359C16.4295 24.2145 16.4372 24.1936 16.4372 24.1895C16.4372 24.1853 16.4511 24.1532 16.4681 24.118C16.4852 24.0827 16.4991 24.0501 16.4991 24.0454C16.4991 24.0407 16.5141 24.0042 16.5323 23.9643C16.5506 23.9243 16.5662 23.8888 16.567 23.8854C16.5724 23.8626 16.5928 23.8114 16.6204 23.7514C16.6379 23.7129 16.6529 23.6787 16.6538 23.6753C16.6612 23.644 16.6849 23.5828 16.7232 23.4961C16.7293 23.4825 16.7503 23.433 16.77 23.3863C16.7896 23.3395 16.8083 23.3061 16.8115 23.3121C16.8147 23.3181 16.8156 23.3162 16.8136 23.3078C16.8089 23.2887 16.8334 23.2191 16.8747 23.134C16.8921 23.098 16.91 23.0521 16.9144 23.032C16.9188 23.0119 16.9276 22.9954 16.9339 22.9954C16.9402 22.9954 16.9453 22.9878 16.9453 22.9786C16.9453 22.9482 16.9977 22.835 17.0087 22.8418C17.0146 22.8454 17.0163 22.8404 17.0126 22.8307C17.0088 22.8209 17.0166 22.7886 17.03 22.759C17.0855 22.6351 17.218 22.308 17.218 22.2948C17.218 22.2869 17.2222 22.2787 17.2274 22.2764C17.2326 22.2741 17.2642 22.2037 17.2975 22.1197C17.3309 22.0359 17.3648 21.9607 17.3728 21.9528C17.3807 21.9448 17.3847 21.9306 17.3816 21.9212C17.3777 21.9099 17.3812 21.9075 17.3918 21.914C17.4018 21.9202 17.4046 21.9189 17.3994 21.9105C17.3913 21.8974 17.397 21.8797 17.4413 21.7778ZM11.6307 21.4197C11.6346 21.4235 11.6415 21.4166 11.6461 21.4044C11.6529 21.3868 11.6515 21.3854 11.6392 21.3975C11.6307 21.4059 11.6269 21.4159 11.6307 21.4197ZM12.8498 21.5415C12.8608 21.5457 12.8658 21.5436 12.8614 21.5366C12.8573 21.5299 12.8486 21.5244 12.8422 21.5244C12.8244 21.5244 12.8283 21.5333 12.8498 21.5415ZM16.2613 21.6899C16.2671 21.6935 16.2719 21.6883 16.2719 21.6784C16.2719 21.6575 16.2679 21.6557 16.258 21.6719C16.2541 21.6782 16.2556 21.6864 16.2613 21.6899ZM19.0894 21.8891C19.0962 21.8849 19.1018 21.8759 19.1018 21.8691C19.1018 21.8623 19.0962 21.8602 19.0894 21.8644C19.0826 21.8685 19.077 21.8776 19.077 21.8843C19.077 21.8912 19.0826 21.8933 19.0894 21.8891ZM16.0811 22.0263C16.0852 22.0305 16.0959 22.0309 16.1048 22.0273C16.1147 22.0234 16.1118 22.0204 16.0974 22.0198C16.0843 22.0193 16.0769 22.0223 16.0811 22.0263ZM21.1251 22.5273C21.137 22.518 21.1468 22.5082 21.1468 22.5057C21.1468 22.4955 21.1366 22.502 21.1204 22.5226C21.105 22.5422 21.1055 22.5426 21.1251 22.5273ZM26.519 23.8921C26.5221 23.8921 26.528 23.8866 26.5322 23.8797C26.5364 23.8729 26.5339 23.8674 26.5267 23.8674C26.5195 23.8674 26.5136 23.8729 26.5136 23.8797C26.5136 23.8866 26.516 23.8921 26.519 23.8921ZM18.778 24.2225C18.7903 24.2347 18.7917 24.2332 18.785 24.2156C18.7803 24.2034 18.7734 24.1966 18.7696 24.2003C18.7657 24.2042 18.7696 24.2141 18.778 24.2225ZM14.4455 25.5788C14.4545 25.5787 14.4529 25.5738 14.4417 25.5666C14.418 25.5513 14.4136 25.5513 14.4232 25.5666C14.4274 25.5735 14.4374 25.5789 14.4455 25.5788ZM15.3725 26.7677C15.3787 26.7654 15.3807 26.7586 15.3769 26.7524C15.373 26.7462 15.3749 26.7324 15.3809 26.7215C15.3896 26.7062 15.3968 26.715 15.4143 26.7616C15.4265 26.7945 15.4465 26.8435 15.4586 26.8708C15.4818 26.9231 15.924 27.9767 15.9419 28.0225C15.9518 28.0478 15.9377 28.0557 15.7037 28.1552C15.5669 28.2134 15.4501 28.2579 15.4441 28.2543C15.4382 28.2506 15.4333 28.2527 15.4333 28.259C15.4333 28.2715 15.2194 28.3644 15.1907 28.3644C15.1809 28.3644 15.173 28.3694 15.173 28.3754C15.173 28.3815 15.1678 28.3833 15.1616 28.3795C15.1554 28.3757 15.1485 28.377 15.1461 28.3824C15.1388 28.4001 14.9249 28.4853 14.9105 28.4764C14.9025 28.4714 14.8999 28.4732 14.9044 28.4806C14.9089 28.4877 14.9027 28.4963 14.8908 28.4996C14.8791 28.503 14.8097 28.531 14.7367 28.5618L14.604 28.6179L14.6292 28.554C14.7374 28.2796 14.8423 28.032 14.8518 28.0286C14.8581 28.0263 14.8606 28.0201 14.8574 28.0148C14.8522 28.0065 14.9534 27.7481 15.0061 27.6353C15.0161 27.6139 15.0242 27.5929 15.0242 27.5888C15.0242 27.5847 15.0348 27.5577 15.0477 27.5289C15.0607 27.5 15.1007 27.4041 15.1367 27.3158C15.1726 27.2274 15.2052 27.1523 15.2092 27.1489C15.2131 27.1455 15.218 27.1343 15.22 27.1242C15.2281 27.0844 15.3618 26.7717 15.3725 26.7677ZM18.5001 26.9311C18.5107 26.927 18.5193 26.9215 18.5193 26.9189C18.5193 26.9089 18.4957 26.9145 18.4884 26.9263C18.4841 26.9333 18.489 26.9353 18.5001 26.9311ZM17.3599 27.3761C17.3705 27.3721 17.3791 27.3666 17.3791 27.3639C17.3791 27.3539 17.3554 27.3595 17.3481 27.3712C17.3439 27.3782 17.3488 27.3803 17.3599 27.3761ZM21.9648 28.8115C21.9716 28.8073 21.9772 28.7983 21.9772 28.7915C21.9772 28.7847 21.9716 28.7826 21.9648 28.7868C21.958 28.791 21.9524 28.8 21.9524 28.8068C21.9524 28.8136 21.958 28.8157 21.9648 28.8115ZM20.8285 29.1538C20.8325 29.1636 20.8354 29.1607 20.836 29.1463C20.8365 29.1333 20.8336 29.126 20.8295 29.1301C20.8253 29.1342 20.8249 29.1448 20.8285 29.1538ZM9.32703 29.9944C9.33101 30.0042 9.33394 30.0013 9.33454 29.9869C9.33506 29.9739 9.33213 29.9666 9.328 29.9706C9.32387 29.9748 9.32342 29.9854 9.32703 29.9944ZM18.2823 30.737C18.2945 30.7492 18.2959 30.7477 18.2892 30.7301C18.2846 30.7179 18.2776 30.7111 18.2738 30.7148C18.27 30.7187 18.2738 30.7286 18.2823 30.737Z" fill="white"/>
</g>
<defs>
<clipPath id="clip0_374_931">
<rect width="137" height="32" fill="white"/>
</clipPath>
</defs>
</svg>
