<svg width="500" height="101" viewBox="0 0 500 101" fill="none" xmlns="http://www.w3.org/2000/svg">
    <g clip-path="url(#clip0_185_1434)">
        <path d="M72.0589 28.5656C79.7905 36.2971 88.4499 42.1731 97.3412 46.1935C101.052 47.8945 101.052 53.2292 97.3412 54.8529C88.4499 58.8733 79.7905 64.7493 72.0589 72.4808C64.3274 80.2124 58.4514 88.8717 54.431 97.763C52.73 101.474 47.3953 101.474 45.7716 97.763C41.7512 88.8717 35.8752 80.2124 28.1437 72.4808C20.4121 64.7493 11.7528 58.8733 2.86149 54.8529C-0.849662 53.1519 -0.849662 47.8171 2.86149 46.1935C11.7528 42.1731 20.4121 36.2971 28.1437 28.5656C35.8752 20.834 41.7512 12.1747 45.7716 3.28336C47.4726 -0.427787 52.8074 -0.427787 54.431 3.28336C58.4514 12.1747 64.3274 20.834 72.0589 28.5656Z" fill="#377EF6"/>
        <path d="M216.175 98.4573H190.97L158.497 53.2277H158.265V98.4573H138.473V2.58594H158.265V44.7229H158.497L189.888 2.58594H213.082L176.589 48.1248L216.175 98.4573Z" fill="#4D4D4D"/>
        <path d="M261.714 29.8005V46.1141C259.549 45.7275 257.694 45.4183 255.761 45.4183C244.164 45.4183 237.978 52.6859 237.978 66.1388V98.4568H219.113V30.1098H236.509V39.7742H236.741C241.303 32.3519 247.411 29.0273 255.452 29.0273C257.307 29.0273 259.781 29.2593 261.637 29.8005H261.714Z" fill="#4D4D4D"/>
        <path d="M267.898 18.7449V2.58594H286.763V18.7449H267.898ZM267.898 98.4573V30.1103H286.763V98.5346H267.898V98.4573Z" fill="#4D4D4D"/>
        <path d="M355.111 51.0619H337.096C337.096 44.0261 333.076 41.0882 326.349 41.0882C320.319 41.0882 317.071 43.4849 317.071 47.428C317.071 52.2989 321.401 53.4587 331.761 56.1647C343.977 59.412 357.508 62.5046 357.508 79.2048C357.508 91.9618 345.91 100.621 327.354 100.621C308.799 100.621 296.66 92.8123 296.66 76.2668H315.757C315.757 83.1478 319.932 87.0136 327.741 87.0136C334.313 87.0136 337.715 84.4622 337.715 80.4418C337.715 74.4885 332.612 73.3288 321.942 70.4681C310.5 67.5301 298.284 64.824 298.284 48.897C298.284 36.6812 309.572 27.8672 326.581 27.8672C344.519 27.8672 355.265 35.8307 355.265 51.0619H355.111Z" fill="#4D4D4D"/>
        <path d="M403.047 83.6904V98.0711C400.495 98.8443 396.32 99.3855 393.073 99.3855C377.301 99.3855 370.419 93.0456 370.419 77.1959V44.1048H359.363V30.1107H370.419V12.3281H389.284V30.1107H402.351V44.1048H389.284V73.8713C389.284 81.4483 391.681 84.3863 398.176 84.3863C399.954 84.3863 401.81 84.1543 403.047 83.6904Z" fill="#4D4D4D"/>
        <path d="M469.848 55.0058V79.7468C469.848 88.3288 470.544 93.8955 471.704 98.4571H454.772C454.076 95.5965 453.844 92.6585 453.844 89.3339H453.612C448.509 96.6016 440.855 100.081 431.422 100.081C416.887 100.081 408.15 91.1895 408.15 79.3602C408.15 68.1494 414.877 60.6498 434.67 57.5572C439.772 56.784 447.427 55.9336 451.756 55.7016V53.3048C451.756 44.7228 447.195 41.1663 440.546 41.1663C433.51 41.1663 429.489 45.0321 429.258 51.5266H410.934C411.63 38.4602 421.062 27.9453 440.546 27.9453C460.029 27.9453 469.926 37.0686 469.926 55.0058H469.848ZM451.679 67.067C447.659 67.2989 442.015 67.8402 437.917 68.536C430.108 69.8504 426.861 72.4791 426.861 77.9685C426.861 83.0713 430.34 86.5505 436.989 86.5505C440.932 86.5505 445.03 85.3135 447.736 82.6074C450.983 79.3602 451.679 75.7264 451.679 69.5411V66.9897V67.067Z" fill="#4D4D4D"/>
        <path d="M481.135 98.4573V2.58594H500V98.4573H481.135Z" fill="#4D4D4D"/>
    </g>
    <defs>
        <clipPath id="clip0_185_1434">
            <rect width="500" height="100.124" fill="white" transform="translate(0 0.5)"/>
        </clipPath>
    </defs>
</svg>
