<?xml version="1.0" encoding="UTF-8"?>
<svg xmlns="http://www.w3.org/2000/svg" version="1.1" viewBox="0 0 1576.41 395.84">
  <defs>
    <style>
      .cls-1 {
        fill: #fff;
      }

      .cls-2 {
        fill: #537ebf;
      }

      .cls-3 {
        fill: #537fbe;
      }
    </style>
  </defs>
  <!-- Generator: Adobe Illustrator 28.6.0, SVG Export Plug-In . SVG Version: 1.2.0 Build 709)  -->
  <g>
    <g id="Layer_1">
      <g>
        <path class="cls-1" d="M553.3,149.23l-42.95,97.38h23.26l6.02-16.71,49.93-.36,8.42,17.07h22.98l-43.4-97.38h-24.27ZM549.45,211.96l14.88-39.64,15.89,39.64h-30.77Z"/>
        <polygon class="cls-1" points="704.41 159.33 704.41 149.23 632.26 149.23 632.26 167.37 674.61 167.44 628.52 235.09 628.52 246.61 705.99 246.61 706.08 226.71 658.33 226.57 704.41 159.33"/>
        <rect class="cls-1" x="725.79" y="149.23" width="21.55" height="97.38"/>
        <polygon class="cls-1" points="841.14 212.05 791.08 149.23 774.02 149.23 774.02 246.61 793.3 246.61 793.3 183.65 843.21 246.61 860.93 246.61 860.93 149.23 840.64 149.23 841.14 212.05"/>
        <polygon class="cls-1" points="878.57 167.55 908.59 167.55 908.59 246.61 928.55 246.61 928.55 167.55 959.47 167.55 959.47 149.23 878.57 149.23 878.57 167.55"/>
        <polygon class="cls-1" points="996.12 206.93 1045.37 206.93 1045.37 187 996.13 187 996.13 169.11 1047.32 169.11 1047.32 149.23 976.35 149.23 976.35 246.61 1048.64 246.61 1048.64 226.75 996.12 226.75 996.12 206.93"/>
        <polygon class="cls-1" points="1178.52 206.93 1227.78 206.93 1227.78 187 1178.54 187 1178.54 169.11 1229.72 169.11 1229.72 149.23 1158.76 149.23 1158.76 246.61 1231.05 246.61 1231.05 226.75 1178.52 226.75 1178.52 206.93"/>
        <polygon class="cls-1" points="1091.96 149.23 1070.39 149.23 1070.39 246.61 1141.13 246.61 1141.13 227.94 1091.96 227.94 1091.96 149.23"/>
        <path class="cls-1" d="M1295.5,169.68c5.01,0,9.48,1.1,13.43,3.3,3.94,2.2,7.19,5.39,9.74,9.56l20.38-11.69c-4.13-7.33-10.04-13.06-17.74-17.22-7.7-4.15-16.21-6.23-25.53-6.23-7.42,0-14.31,1.25-20.66,3.76-6.35,2.5-11.77,5.97-16.24,10.4-4.48,4.43-7.99,9.77-10.54,16.03-2.55,6.26-3.83,13.03-3.83,20.31s1.27,14.05,3.83,20.31c2.55,6.26,6.06,11.61,10.54,16.03,4.47,4.43,9.89,7.89,16.24,10.4,6.35,2.5,13.24,3.76,20.66,3.76,9.13,0,17.34-1.9,24.62-5.7,7.28-3.8,13.19-9.09,17.74-15.86l-19.06-13.5c-5.75,8.53-13.59,12.8-23.51,12.8-4.87,0-9.31-1.08-13.32-3.24-4.01-2.16-7.27-5.4-9.77-9.74-2.5-4.34-3.76-9.43-3.76-15.27,0-8.3,2.53-15.08,7.58-20.35,5.05-5.26,11.45-7.9,19.2-7.9Z"/>
        <path class="cls-1" d="M1437.72,161.75c-4.48-4.45-9.91-7.95-16.31-10.5-6.4-2.55-13.29-3.83-20.66-3.83s-14.26,1.28-20.66,3.83c-6.4,2.55-11.84,6.05-16.31,10.5-4.48,4.45-7.99,9.8-10.54,16.03-2.55,6.24-3.83,12.95-3.83,20.14s1.27,13.9,3.83,20.14c2.55,6.24,6.06,11.58,10.54,16.03,4.47,4.45,9.91,7.95,16.31,10.5,6.4,2.55,13.29,3.83,20.66,3.83s14.26-1.28,20.66-3.83c6.4-2.55,11.84-6.05,16.31-10.5,4.47-4.45,7.99-9.8,10.54-16.03,2.55-6.24,3.83-12.95,3.83-20.14s-1.28-13.9-3.83-20.14c-2.55-6.24-6.06-11.58-10.54-16.03ZM1420.26,218.3c-5.08,5.24-11.58,7.86-19.51,7.86s-14.43-2.62-19.51-7.86c-5.08-5.24-7.62-12.03-7.62-20.38s2.54-15.14,7.62-20.38c5.08-5.24,11.58-7.86,19.51-7.86s14.43,2.62,19.51,7.86c5.08,5.24,7.62,12.03,7.62,20.38s-2.54,15.14-7.62,20.38Z"/>
        <polygon class="cls-1" points="1551.13 149.23 1523.39 186.05 1494.95 149.23 1469.75 149.23 1469.75 246.61 1491.11 246.61 1491.11 180.18 1520.61 216.77 1524.62 216.77 1554.43 178.91 1554.98 246.61 1576.41 246.61 1576.41 149.23 1551.13 149.23"/>
      </g>
      <polygon class="cls-2" points="113.18 391.31 113.36 394.73 133.16 394.73 132.69 391.39 113.18 391.31"/>
      <path class="cls-3" d="M80.31,153.79"/>
      <path class="cls-3" d="M157.26,315.53h-10.15s-66.8,0-66.8,0V80.13h235.4v48.69c37.69-10.17,79.29-10.17,79.29-10.17l.38-.22.16-118.13L80.07,0H0v395.84h160.03c-4.14-18.01-2.77-80.31-2.77-80.31Z"/>
      <polygon class="cls-1" points="80.31 80.13 0 159.42 0 203.31 49.08 154.86 49.08 395.84 80.31 395.84 80.31 80.13"/>
      <path class="cls-1" d="M185.28,176.07c-46.8,53.42-65.53,127.8-56.4,219.76h31.15c-9.14-84.71,7.16-151.6,48.58-199,68.77-78.7,185.6-78.13,186.87-78.14v-31.23c-5.34-.05-131.74-.96-210.2,88.61Z"/>
      <g>
        <path class="cls-1" d="M144.87,390.2,227.72,322.2c1.73-1.81,2.91-2.23,5.9-1.7,3.08.54,4.69,1.79,4.69,5.37,0,3.86-7.41,14.26-22.22,31.19-14.81,16.94-22.22,26.93-22.22,29.95,0,2.48,2.7,3.72,8.12,3.72,1.21,0,1.82.76,1.82,2.27,0,1.8-3.06,2.7-9.17,2.7-6.95,0-10.42-3.31-10.42-9.94,0-7.73,10.26-23.87,30.77-48.44M254.87,291.51c-4.42,0-6.62-2.25-6.62-6.76,0-3.77,2.25-7.18,6.76-10.21,4.05-2.76,8.09-4.14,12.14-4.14,4.78,0,7.18,2.62,7.18,7.87,0,3.77-2.39,6.99-7.18,9.66-4.14,2.39-8.23,3.59-12.28,3.59Z"/>
        <path class="cls-1" d="M275.28,350.85l-34.08,25.67c-18.4,12.6-31.88,18.9-40.43,18.9-1.1,0-1.66-.54-1.66-1.61,0-1.7,1.7-2.82,5.11-3.36,3.86-.55,8.33-2.21,13.39-4.97,6.07-3.22,16.42-10.27,31.05-21.13,10.67-7.73,21.94-16.3,33.81-25.69,13.71-20.53,32.57-42.81,56.58-66.85,26.68-26.7,44.57-40.05,53.68-40.05,4.23,0,6.35,2.26,6.35,6.76,0,11.59-13.6,30.13-40.8,55.61-17.18,16.01-35.89,31.51-56.1,46.5-4.69,3.51-10.52,10.93-17.51,22.28-7.26,11.62-10.89,19.83-10.89,24.63,0,2.31,2.53,3.46,7.59,3.46,1.19,0,1.79.72,1.79,2.15,0,1.79-2.41,2.68-7.23,2.68-7.6,0-11.4-3.86-11.4-11.59s3.59-18.67,10.76-33.39ZM391.74,236.04c-3.58,0-17.78,14.04-42.59,42.12-23.62,26.89-38.64,45.35-45.07,55.38,60.1-48.89,90.14-80.66,90.14-95.3,0-1.47-.83-2.21-2.48-2.21Z"/>
      </g>
    </g>
  </g>
</svg>